<?xml version="1.0" standalone="no"?>
<!DOCTYPE svg PUBLIC "-//W3C//DTD SVG 20010904//EN"
 "http://www.w3.org/TR/2001/REC-SVG-20010904/DTD/svg10.dtd">
<svg version="1.0" xmlns="http://www.w3.org/2000/svg"
 width="1920.000000pt" height="1080.000000pt" viewBox="0 0 1920.000000 1080.000000"
 preserveAspectRatio="xMidYMid meet">

<g transform="translate(0.000000,1080.000000) scale(0.100000,-0.100000)"
fill="#000000" stroke="none">
<path d="M0 7945 l0 -2854 88 -4 87 -3 -87 -2 c-71 -2 -88 -5 -88 -17 0 -11
11 -15 40 -15 29 0 40 -4 40 -15 0 -11 -11 -15 -40 -15 l-40 0 0 -1030 0
-1030 23 0 c12 -1 204 -2 427 -5 1545 -15 2330 -19 3765 -19 897 -1 1539 -2
1428 -4 -131 -1 -203 -6 -203 -13 0 -7 163 -9 505 -7 278 2 505 0 505 -4 0 -4
-9 -8 -20 -10 -12 -2 -21 -7 -20 -13 0 -6 47 -10 117 -11 86 -1 106 1 73 7
-32 5 -11 7 75 6 158 -2 382 5 328 10 -24 2 -43 9 -43 15 0 7 20 9 61 4 34 -3
89 -7 123 -8 l61 -1 -45 -7 c-39 -6 -34 -7 37 -8 45 -1 83 2 85 7 3 10 1000
20 1078 11 25 -3 -119 -6 -320 -7 -514 -4 -700 -12 -693 -29 4 -11 9 -12 19
-3 9 7 171 11 526 13 282 2 494 1 471 -1 -24 -2 -43 -8 -43 -14 0 -5 -18 -9
-40 -9 -23 0 -40 5 -40 11 0 7 -10 9 -27 4 -30 -8 -187 -7 -215 1 -10 3 -19
-2 -23 -16 -8 -26 -22 -26 -30 0 -5 16 -15 20 -56 20 -34 0 -49 -4 -49 -13 0
-11 -18 -13 -80 -10 -76 4 -80 3 -80 -16 0 -18 6 -21 40 -21 51 0 52 -17 3
-23 -21 -2 -3 -2 40 1 53 3 77 1 77 -7 0 -8 6 -9 18 -2 12 6 71 6 167 -1 107
-7 177 -7 245 1 52 6 166 11 254 12 137 1 160 -1 168 -15 11 -20 28 -21 28 -1
0 23 20 18 42 -10 25 -32 38 -32 38 0 0 20 5 25 25 25 23 0 25 -4 25 -40 l0
-40 61 0 c56 0 64 3 92 33 26 27 32 29 35 15 3 -14 14 -18 52 -18 28 0 52 -6
59 -14 9 -11 -6 -14 -86 -20 -116 -7 -373 -8 -492 -1 -49 3 -87 1 -91 -4 -3
-6 -11 -6 -20 -1 -13 8 -12 10 3 10 9 0 17 5 17 10 0 6 -18 10 -40 10 -40 0
-55 -15 -22 -23 9 -3 -17 -5 -58 -5 -50 0 -68 2 -55 8 15 6 9 9 -25 9 -34 0
-40 -3 -25 -9 13 -6 -19 -9 -90 -9 -87 -1 -958 -11 -1090 -13 -16 0 -102 -4
-189 -9 -120 -7 -161 -7 -167 2 -4 7 -15 9 -25 5 -33 -13 -294 -19 -294 -7 0
7 -8 7 -25 1 -28 -11 -127 -2 -136 13 -5 6 -17 6 -35 0 -28 -9 -115 -3 -176
12 -18 5 -28 3 -28 -4 0 -7 -28 -11 -80 -11 -67 0 -80 3 -80 16 0 14 9 16 50
12 28 -3 53 -2 55 2 3 5 58 8 122 9 65 1 150 4 188 8 62 7 51 9 -100 14 -140
5 -1308 11 -1410 8 -65 -3 -265 15 -265 23 0 4 -18 8 -40 8 -31 0 -40 -4 -40
-17 -1 -17 -1 -17 -11 -1 -13 23 -45 23 -59 1 -9 -15 -10 -13 -8 12 3 29 19
39 43 26 20 -11 36 -10 27 2 -5 7 -9 21 -9 32 1 43 18 47 220 52 105 2 194 7
196 9 2 2 -104 4 -237 4 -208 0 -242 -2 -242 -15 0 -8 -7 -15 -15 -15 -8 0
-14 5 -13 12 4 15 -127 16 -417 2 -129 -5 -184 -11 -155 -15 25 -3 34 -7 19
-7 -15 -1 -37 -10 -50 -20 -13 -10 -39 -24 -56 -31 -22 -9 -33 -20 -33 -33 0
-16 4 -18 18 -12 9 4 52 10 96 12 71 3 80 2 100 -20 l21 -23 3 23 c3 21 8 22
96 22 l93 0 -5 -25 c-2 -14 -8 -25 -13 -25 -5 0 -9 -7 -9 -15 0 -8 7 -15 15
-15 8 0 15 5 15 10 0 6 29 10 66 10 67 0 79 -10 41 -34 -12 -8 -23 -7 -37 2
-12 7 -25 10 -31 7 -5 -4 -46 -10 -92 -15 -65 -7 -85 -5 -98 6 -18 16 -36 18
-41 5 -5 -14 -158 -26 -158 -12 0 6 19 12 43 13 l42 1 -40 4 c-22 3 -43 9 -46
15 -5 7 -18 4 -40 -7 -75 -39 -85 -43 -96 -37 -7 4 -50 3 -98 -2 -70 -8 -85
-12 -85 -26 0 -15 16 -18 108 -24 123 -8 158 -20 85 -29 -95 -12 -3466 -13
-3525 -1 l-28 6 0 -625 0 -625 198 5 c108 3 215 4 237 2 22 -2 297 -4 612 -4
315 0 568 -2 563 -5 -4 -3 182 -4 413 -2 232 2 510 -1 617 -6 138 -6 200 -6
213 2 13 8 20 8 26 -3 6 -9 22 -13 43 -11 29 2 310 1 408 -2 19 -1 145 1 280
5 135 4 378 9 540 12 162 3 345 9 405 12 138 7 146 7 170 -1 13 -4 30 3 50 19
l30 26 -122 -6 c-95 -4 -123 -2 -123 7 -1 8 -6 6 -14 -4 -7 -10 -19 -18 -26
-18 -7 0 -19 8 -26 18 -8 10 -13 12 -14 5 0 -8 -15 -13 -40 -13 -25 0 -40 -5
-40 -12 -1 -13 -29 30 -30 45 0 4 25 7 55 7 30 0 55 5 55 10 0 6 18 10 40 10
22 0 40 5 40 10 0 6 -18 10 -40 10 -23 0 -40 -5 -40 -11 0 -8 -23 -9 -78 -4
-113 11 -173 7 -188 -13 -7 -9 -15 -15 -17 -12 -8 8 17 80 27 80 13 0 96 85
96 99 0 6 17 11 40 11 29 0 40 -4 40 -15 0 -9 -10 -15 -26 -15 -16 0 -24 -5
-22 -12 6 -16 48 -23 48 -8 0 6 20 31 45 56 l46 45 33 -28 c19 -15 36 -35 39
-43 3 -8 3 4 0 27 -4 29 -2 43 6 43 6 0 11 -7 11 -15 0 -18 16 -20 26 -4 3 6
1 15 -6 19 -9 6 -7 13 9 29 15 15 33 21 66 21 25 0 45 -4 45 -10 0 -5 18 -10
40 -10 36 0 40 3 40 25 0 25 1 25 80 25 64 0 80 3 80 15 0 11 11 15 40 15 39
0 40 -1 40 -35 0 -34 1 -35 40 -35 33 0 40 3 40 20 0 27 7 25 37 -11 14 -16
31 -28 39 -25 7 3 15 -2 18 -10 11 -28 35 -14 48 29 l12 42 4 -32 3 -33 80 0
c46 0 79 -4 79 -10 0 -5 -18 -10 -40 -10 -22 0 -40 -4 -40 -10 0 -5 -7 -10
-15 -10 -18 0 -20 -16 -4 -26 6 -3 15 -1 19 6 4 7 24 11 48 9 32 -3 45 1 56
16 13 19 15 18 31 -16 13 -27 22 -35 36 -32 23 6 25 23 4 23 -8 0 -15 5 -15
10 0 13 27 13 35 0 8 -13 42 -13 47 0 2 7 16 6 39 -4 34 -14 36 -14 54 10 18
25 19 25 34 7 14 -17 26 -18 111 -13 78 5 102 3 133 -11 36 -17 41 -17 73 -2
32 16 37 15 69 0 43 -20 45 -21 45 -4 0 9 38 12 160 12 88 0 160 -1 160 -3 0
-2 -10 -12 -22 -23 l-23 -18 29 -1 c16 0 38 7 48 16 23 22 117 32 128 14 6
-10 15 -10 40 -1 18 6 53 11 76 11 37 0 44 -3 44 -20 0 -11 4 -20 9 -20 5 0
12 -16 15 -36 10 -51 56 -100 56 -59 0 8 -6 15 -14 15 -22 0 -15 93 8 116 15
14 21 15 35 5 9 -6 24 -14 34 -17 9 -4 17 -14 17 -24 0 -10 9 -20 20 -23 26
-7 26 -27 0 -34 -22 -6 -27 -23 -7 -23 25 0 67 25 67 40 0 8 -14 21 -30 28
-34 15 -31 28 8 44 29 11 102 17 102 8 0 -4 -6 -12 -12 -19 -10 -11 -10 -14 0
-18 7 -3 12 -22 12 -44 0 -39 0 -39 -40 -39 -29 0 -40 -4 -40 -15 0 -11 -11
-15 -38 -15 -31 0 -41 -5 -52 -25 -16 -29 -37 -32 -56 -7 -12 16 -13 15 -14
-5 0 -19 6 -23 33 -24 54 0 119 -7 124 -13 3 -3 -10 -9 -28 -14 l-34 -9 27 -8
c36 -9 71 10 63 36 -5 15 -2 19 14 19 16 0 20 -6 18 -22 -2 -20 4 -24 47 -33
37 -7 51 -6 54 3 4 14 82 16 82 2 0 -12 110 -13 128 -1 16 10 -27 20 -92 23
-28 1 -20 3 29 8 80 7 175 1 175 -11 0 -5 -18 -9 -40 -9 -22 0 -40 -4 -40 -10
0 -14 224 -10 283 5 34 9 60 10 81 3 17 -5 68 -6 114 -3 47 4 82 3 82 -2 0 -6
176 -10 423 -12 232 -1 537 -4 677 -6 338 -6 1613 -4 1905 3 66 2 125 2 130 1
6 -1 15 0 20 1 20 5 2121 2 2690 -4 319 -3 1017 -8 1550 -12 534 -3 1003 -9
1043 -15 94 -12 175 -11 232 2 31 7 46 7 48 0 2 -7 36 -11 80 -12 46 -1 67 -4
53 -8 -14 -4 -54 -4 -90 0 -36 4 -70 5 -74 2 -5 -3 -2554 -8 -5665 -10 -3111
-3 -5695 -6 -5742 -7 -240 -6 -3737 -6 -4452 0 l-828 7 0 -41 0 -40 2403 5
c1321 3 2782 8 3247 12 465 4 1084 7 1375 5 863 -4 888 -4 1175 2 245 5 277 4
289 -10 14 -16 42 -21 55 -9 3 4 29 6 57 4 29 -1 56 3 65 10 12 10 17 8 29 -7
12 -16 16 -17 24 -5 7 11 15 11 42 2 24 -8 35 -8 40 0 4 7 32 9 80 6 47 -3 61
-2 39 3 -24 5 -18 6 20 2 52 -4 195 -6 1302 -14 258 -2 468 -6 468 -10 0 -9
-116 -10 -1112 -12 -369 0 -644 -5 -641 -10 3 -5 -26 -6 -68 -3 -41 4 -229 8
-419 10 -190 3 -304 2 -255 -2 l90 -7 -85 -5 c-62 -4 -40 -5 80 -6 100 -1 157
2 145 7 -18 8 -17 9 7 9 15 1 30 -3 33 -9 3 -6 120 -9 298 -8 161 1 340 -3
400 -8 89 -8 110 -7 122 5 11 12 17 12 29 2 11 -10 50 -13 138 -11 68 2 132 2
143 1 56 -5 198 1 258 10 46 7 76 8 97 1 18 -7 30 -7 32 -1 2 6 54 5 138 -1
236 -19 265 -24 265 -40 0 -11 -13 -16 -45 -17 -25 -2 -67 -7 -95 -13 -77 -15
-347 -21 -339 -8 4 6 2 8 -4 5 -5 -4 -72 -6 -149 -6 -368 4 -486 0 -495 -14
-6 -9 -12 -9 -28 1 -23 14 -50 16 -50 3 0 -5 -72 -12 -160 -16 l-160 -7 0 -33
c0 -33 1 -33 32 -24 47 13 58 11 52 -8 -5 -15 -4 -16 5 -3 15 22 336 22 336 0
0 -18 120 -17 -3035 -24 -1185 -2 -2234 -7 -2330 -10 -190 -6 -1718 -16 -3040
-21 -454 -2 -842 -3 -862 -4 l-38 -1 0 -480 0 -480 9600 0 9600 0 0 2820 0
2819 -62 0 c-87 0 -456 39 -573 60 -33 6 -83 11 -112 11 -28 0 -53 5 -55 11
-2 6 -37 11 -81 13 -44 1 -82 7 -89 14 -7 7 -31 12 -54 12 -24 0 -46 4 -49 10
-3 6 -39 10 -78 11 -66 0 -176 15 -134 18 40 2 4 19 -50 23 -32 2 -73 12 -92
21 -22 11 -58 17 -103 17 -39 0 -68 4 -68 10 0 6 -16 10 -35 10 -20 0 -51 6
-69 14 -19 8 -65 17 -102 21 -57 7 -65 10 -50 20 15 11 15 13 1 19 -18 6 -576
29 -699 28 -59 0 -76 2 -67 11 8 8 146 14 474 19 1020 15 1187 20 1187 37 0
13 -48 61 -61 61 -8 0 -33 9 -56 20 -30 13 -43 25 -43 39 0 13 -9 21 -29 26
-16 3 -35 13 -41 20 -9 11 -17 12 -31 4 -16 -8 -21 -6 -28 14 -13 34 -88 68
-158 72 -208 13 -247 17 -264 25 -10 6 -51 10 -91 10 -40 1 -125 7 -188 14
-63 6 -136 10 -162 8 -27 -2 -48 0 -48 6 0 18 -154 30 -240 19 -25 -3 -78 -9
-117 -13 -40 -3 -73 -10 -73 -14 0 -11 97 -33 110 -25 5 3 15 3 21 0 16 -10
-21 -34 -53 -35 -16 0 -28 -4 -28 -10 0 -5 7 -10 15 -10 8 0 15 -5 15 -11 0
-7 -12 -10 -32 -7 -41 7 -58 1 -58 -19 0 -12 -7 -14 -30 -9 -23 4 -30 2 -30
-11 0 -8 -11 -25 -23 -37 -39 -36 -217 -56 -537 -58 -64 -1 -82 -3 -45 -5 33
-2 62 -8 65 -13 7 -12 88 -15 160 -6 36 5 74 2 110 -7 48 -12 56 -18 61 -43 9
-47 3 -51 -54 -43 -70 10 -427 11 -427 1 0 -4 7 -17 15 -29 28 -40 2 -46 -163
-40 -81 4 -148 7 -149 7 -2 0 -3 4 -3 9 0 5 64 10 142 10 79 1 146 5 151 10 4
4 -7 22 -25 40 -56 55 -101 62 -416 66 -156 2 -309 9 -340 14 -109 20 -247 41
-311 47 -39 5 -69 13 -80 24 -26 28 -48 36 -196 75 -193 50 -308 83 -342 96
-15 6 -62 19 -103 29 -144 33 -349 91 -550 157 -168 54 -435 120 -517 127 -34
3 -70 9 -80 14 -10 5 -52 15 -93 22 -41 7 -183 41 -315 76 -132 35 -310 81
-395 102 -151 36 -155 38 -158 65 -4 33 -30 36 -57 7 -10 -11 -21 -18 -25 -15
-10 6 -280 68 -410 93 -252 51 -404 74 -775 118 -188 23 -272 28 -578 31 -297
4 -370 2 -430 -11 -39 -8 -115 -20 -167 -26 -150 -19 -337 -58 -443 -94 -54
-19 -96 -29 -94 -23 3 11 11 16 67 41 27 12 30 16 13 16 -12 0 -25 5 -28 10
-3 6 3 10 15 10 12 0 29 7 38 16 15 15 14 16 -6 10 -17 -6 -24 -2 -31 17 -6
14 -18 31 -28 38 -36 26 -32 34 13 30 24 -1 44 1 44 6 0 4 25 9 54 9 74 1 148
23 153 45 3 9 17 20 31 24 15 4 21 10 14 12 -6 3 -12 11 -12 19 0 8 -10 15
-22 15 -13 1 2 6 32 11 30 5 487 11 1014 14 916 6 960 5 973 -12 11 -15 35
-19 151 -25 168 -9 252 -19 252 -30 0 -5 14 -6 32 -2 22 4 29 3 24 -5 -4 -7
-1 -12 8 -12 9 0 16 -4 16 -8 0 -5 51 -12 113 -15 61 -4 121 -8 132 -10 11 -2
14 -2 8 0 -36 12 -4 23 70 24 98 2 109 0 122 -13 7 -7 3 -9 -14 -5 -13 3 -35
1 -50 -5 l-26 -11 35 -9 c19 -6 47 -11 63 -12 15 0 27 -4 27 -7 0 -6 46 -21
118 -39 25 -7 42 -17 42 -25 0 -8 5 -15 10 -15 15 0 12 -36 -4 -49 -7 -6 -11
-22 -9 -34 7 -33 94 -52 185 -40 48 7 94 5 160 -5 51 -7 197 -15 323 -17 127
-3 250 -6 275 -8 25 -3 86 -6 135 -7 87 -2 125 -11 125 -29 0 -5 -18 -12 -40
-16 -22 -4 -40 -10 -40 -14 0 -5 -11 -6 -25 -4 -14 3 -31 -1 -40 -10 -13 -14
-9 -18 40 -36 31 -12 66 -21 80 -21 13 0 25 -5 27 -11 5 -14 96 -31 126 -24
12 3 35 -1 52 -10 16 -8 38 -15 49 -15 23 0 41 -22 23 -28 -21 -7 -13 -20 10
-14 15 3 19 2 14 -7 -14 -22 14 -39 77 -46 34 -4 71 -12 82 -18 19 -10 19 -11
-5 -17 -22 -5 -25 -11 -25 -50 l0 -43 59 -14 c64 -14 90 -29 79 -46 -4 -6 0
-8 10 -4 14 5 16 2 11 -21 -5 -27 -5 -27 26 8 17 19 35 34 40 33 5 -2 7 4 4
12 -5 13 -3 13 22 0 32 -16 61 -3 34 16 -12 9 -12 10 3 5 10 -3 28 -6 38 -6
12 0 17 -4 13 -11 -8 -14 14 -29 45 -29 14 0 32 -7 42 -16 20 -18 89 -28 194
-27 353 2 414 1 432 -10 6 -4 19 -4 28 -1 11 5 18 0 22 -16 4 -16 8 -18 14 -8
6 10 11 10 21 0 7 -7 38 -12 73 -12 41 0 55 -3 45 -10 -8 -5 -11 -12 -8 -16
11 -10 40 4 33 16 -4 6 14 10 47 10 29 1 73 5 98 11 25 5 62 12 83 16 42 6 50
14 41 37 -4 10 -18 16 -41 16 -29 0 -33 2 -24 14 10 12 3 15 -40 21 -79 11
-40 24 87 29 60 2 141 7 179 10 39 3 142 10 230 16 215 14 265 20 265 30 0 4
-35 11 -77 15 -43 3 -94 10 -113 15 -19 5 -116 12 -215 15 -282 9 -285 10
-285 16 0 5 254 19 398 23 59 1 33 14 -43 21 -45 4 -73 11 -69 16 4 7 -7 8
-28 4 -22 -4 -48 -1 -71 8 -31 13 -37 14 -48 1 -9 -11 -15 -12 -27 -2 -8 7
-33 13 -56 13 -22 0 -98 2 -168 3 l-128 2 0 25 c0 20 -5 25 -24 25 -14 0 -28
-5 -31 -10 -4 -7 -14 -5 -28 5 -12 8 -34 15 -49 15 -16 0 -28 4 -28 9 0 13 83
30 95 19 5 -4 14 -8 20 -8 11 0 51 67 44 74 -15 15 -144 32 -259 35 -88 2
-138 7 -142 14 -6 9 -8 9 -8 0 0 -7 -8 -13 -17 -13 -22 1 -53 23 -53 39 0 6
-10 11 -23 11 -13 0 -34 11 -47 25 l-23 24 26 12 c14 6 23 17 21 24 -8 20 126
33 481 45 177 6 332 14 345 17 l25 7 -25 7 c-14 4 -56 8 -95 8 -49 1 -66 4
-55 11 8 5 32 10 52 10 20 0 39 4 42 9 9 15 67 21 88 10 15 -8 18 -17 14 -35
-6 -23 -4 -24 39 -24 37 0 45 3 45 18 0 10 3 22 7 26 4 3 8 27 11 51 3 43 2
45 -22 45 -14 0 -26 -6 -26 -12 0 -9 -24 -14 -80 -16 -52 -2 -80 0 -80 7 0 6
19 12 43 12 84 3 -118 19 -283 22 -169 4 -205 10 -196 33 7 17 -34 41 -43 26
-4 -6 -12 -8 -19 -3 -7 4 10 14 43 26 93 31 68 70 -52 82 -32 3 -53 1 -53 -5
0 -13 -175 -16 -200 -2 -11 6 -62 11 -113 12 -103 2 -167 -18 -167 -50 1 -19
63 -52 101 -52 19 -1 17 -4 -14 -14 -20 -8 -45 -20 -54 -27 -24 -20 -204 -24
-197 -4 4 10 -5 15 -32 17 -58 5 -53 25 8 33 71 9 88 14 85 27 -1 6 4 13 11
15 6 3 12 0 12 -6 0 -14 27 -14 35 0 4 6 5 12 4 14 -2 2 -50 13 -106 25 -57
11 -123 30 -147 41 -40 17 -46 24 -62 77 -10 31 -24 62 -31 67 -7 6 -15 24
-17 42 -3 18 -7 37 -11 43 -3 5 -1 10 4 10 6 0 11 4 11 9 0 4 -69 11 -152 15
-207 9 -1101 9 -1263 0 -141 -7 -248 1 -242 19 2 6 14 12 28 14 27 4 536 16
674 16 50 0 128 0 175 0 202 2 349 1 410 -3 36 -2 151 -3 257 -1 162 2 197 -1
224 -15 28 -14 43 -15 127 -4 52 6 114 9 138 5 24 -3 62 -1 86 6 24 6 153 15
288 20 323 13 353 15 310 29 -17 5 8 8 71 9 72 1 100 5 109 16 15 18 14 19
-105 44 -75 16 -83 20 -50 21 l40 2 -38 8 c-59 11 -57 22 3 19 60 -2 249 27
265 42 5 6 3 9 -5 9 -130 3 -383 22 -405 31 -30 11 -30 11 -7 22 12 5 22 14
22 19 0 4 7 8 15 8 8 0 15 6 15 14 0 19 26 24 170 36 108 9 183 18 290 36 217
35 841 48 1960 40 514 -4 1094 -13 1288 -19 195 -7 356 -9 358 -5 2 3 18 9 34
13 l30 7 0 1299 0 1299 -9600 0 -9600 0 0 -2855z m18542 2467 c16 -16 18 -50
20 -424 2 -292 0 -410 -8 -418 -33 -33 -219 -46 -964 -66 -1192 -32 -1381 -31
-1407 9 -5 7 -9 62 -10 122 -1 61 -7 184 -14 275 -19 250 -17 389 5 422 18 27
30 30 231 53 187 21 1677 58 1990 49 117 -3 142 -7 157 -22z m-11529 -439
c-23 -2 -64 -2 -90 0 -26 2 -7 3 42 3 50 0 71 -1 48 -3z m-448 -13 c-95 -3
130 -7 510 -9 374 -1 698 -3 720 -5 22 -1 78 -3 125 -4 78 -3 83 -4 60 -16
-14 -8 -91 -22 -172 -31 -104 -13 -148 -22 -148 -31 0 -7 10 -14 22 -16 12 -2
23 -9 26 -17 3 -8 0 -11 -6 -7 -11 6 -22 -15 -22 -43 0 -13 -17 -21 -72 -34
-152 -34 -1152 -51 -2193 -36 -330 4 -621 8 -647 8 -27 0 -48 4 -48 10 0 5
-12 14 -27 20 -22 9 -6 10 77 8 58 -2 88 -2 68 0 -21 2 -38 8 -38 13 0 5 -16
7 -36 6 -24 -3 -37 1 -41 10 -3 8 -19 14 -38 14 -37 0 -95 18 -95 30 0 7 -58
23 -89 25 -8 0 -16 6 -19 13 -2 7 -20 12 -43 12 -21 0 -39 4 -39 9 0 5 -18 11
-39 15 -22 3 -43 11 -46 16 -5 9 203 16 375 14 152 -3 1163 19 1200 25 25 5
225 8 445 8 274 -1 346 -3 230 -7z m-2530 -24 c39 -3 76 -5 83 -5 17 -1 15
-28 -4 -35 -9 -3 -28 -6 -42 -6 -45 0 -58 -15 -31 -34 l23 -16 -33 0 c-27 0
-42 -9 -72 -40 -21 -22 -43 -40 -50 -40 -8 0 -8 -4 1 -15 10 -12 8 -16 -15
-25 -14 -5 -36 -10 -48 -10 -12 0 -51 -8 -87 -17 -82 -20 -141 -24 -415 -21
-418 4 -718 -3 -783 -17 -12 -3 -42 0 -65 6 -23 6 -80 13 -127 14 -47 1 -95 3
-107 4 -20 1 -23 6 -23 46 0 43 -1 45 -60 79 -56 33 -64 35 -120 29 -56 -5
-60 -4 -60 15 0 13 -15 29 -42 46 l-43 25 123 1 c72 0 122 4 122 10 0 5 59 11
143 12 206 4 1649 -1 1732 -6z m-678 -342 c-3 -3 -12 -4 -19 -1 -8 3 -5 6 6 6
11 1 17 -2 13 -5z m-717 -46 l1 -33 18 34 18 34 11 -31 c11 -31 12 -31 70 -29
45 1 65 -2 79 -16 18 -16 53 -17 406 -20 212 -1 388 -5 391 -8 10 -10 -4 -38
-22 -42 -10 -3 -1 -5 18 -6 47 -2 126 -24 174 -48 l38 -20 -33 -16 c-19 -8
-70 -18 -115 -20 -45 -3 -90 -9 -100 -15 -10 -5 -40 -10 -66 -10 -50 0 -113
-18 -139 -39 -20 -17 -29 -16 -29 2 0 22 -4 19 -48 -25 -42 -43 -57 -49 -66
-25 -4 12 -17 14 -63 9 -32 -4 -59 -11 -61 -16 -2 -4 -12 -8 -23 -8 -10 0 -19
-4 -19 -10 0 -5 9 -10 20 -10 11 0 20 -4 20 -10 0 -5 18 -10 40 -10 22 0 40
-4 40 -10 0 -16 37 -12 44 5 3 8 12 15 21 15 8 0 15 -7 15 -15 0 -11 11 -15
40 -15 22 0 40 -4 40 -10 0 -5 -9 -10 -20 -10 -11 0 -20 -4 -20 -9 0 -4 9 -20
20 -34 27 -33 25 -37 -11 -37 -31 0 -32 1 -26 40 4 30 2 40 -9 40 -8 0 -14 5
-14 10 0 6 -7 10 -15 10 -11 0 -15 -12 -15 -50 0 -46 -2 -50 -24 -50 -13 0
-26 4 -28 10 -2 6 -8 6 -18 0 -13 -8 -12 -10 3 -10 9 0 17 -7 17 -15 0 -11 11
-15 40 -15 22 0 40 4 40 9 0 5 20 1 45 -8 36 -14 59 -16 118 -9 39 4 86 5 102
2 17 -3 39 -6 50 -8 11 -2 20 -9 20 -17 0 -8 4 -17 9 -20 14 -11 -40 -40 -76
-41 -18 0 -71 4 -118 10 -74 8 -87 7 -98 -7 -11 -14 -10 -16 7 -19 12 -2 21
-8 21 -13 0 -12 -27 -12 -35 1 -3 6 -15 10 -25 10 -10 0 -20 5 -22 12 -3 7
-14 9 -32 4 -23 -6 -26 -9 -16 -21 10 -12 9 -15 -3 -15 -19 0 -61 -38 -70 -62
-3 -10 -13 -18 -22 -18 -8 0 -15 -9 -15 -19 0 -15 10 -21 40 -26 25 -4 40 -12
40 -21 0 -9 12 -14 36 -14 19 0 42 -7 50 -15 17 -17 70 -20 79 -5 3 6 22 10
41 10 49 0 46 -28 -3 -33 -21 -2 -2 -2 42 0 55 3 104 -1 155 -13 41 -9 84 -18
95 -19 69 -5 72 -6 35 -18 l-35 -11 50 -7 c28 -3 42 -7 33 -7 -10 -1 -18 -6
-18 -12 0 -10 10 -11 562 -16 170 -1 314 -7 324 -12 20 -11 -30 -16 -314 -33
-144 -8 -187 -14 -202 -27 -19 -16 -19 -16 13 -30 18 -7 85 -16 152 -18 66 -3
145 -7 175 -8 30 -2 96 -4 145 -5 62 -2 83 -5 69 -11 -12 -5 -199 -14 -415
-20 -217 -6 -405 -13 -419 -15 -14 -2 -32 -4 -40 -5 -8 -1 -1 -6 15 -11 17 -5
152 -12 300 -15 331 -6 552 -21 559 -39 5 -14 -49 -38 -120 -53 -22 -5 -49
-14 -59 -19 -17 -10 -17 -11 3 -22 15 -8 22 -21 22 -40 0 -27 4 -30 53 -42 28
-7 57 -12 64 -11 6 2 14 -2 18 -8 4 -6 -5 -10 -22 -10 -15 0 -63 -7 -106 -15
-43 -8 -140 -16 -215 -16 -76 -1 -180 -4 -232 -8 -101 -7 569 -23 725 -17 44
1 528 6 1075 10 662 5 1004 11 1023 18 20 8 31 8 40 -1 6 -6 22 -10 37 -10 24
1 24 2 -5 10 -22 6 -16 7 25 4 30 -3 109 -8 174 -11 147 -9 210 -28 214 -67 2
-15 12 -33 23 -40 22 -16 15 -27 -15 -27 -19 -1 -20 -2 -4 -14 14 -10 -20 -15
-210 -25 -125 -7 -279 -13 -342 -15 -63 -1 -144 -7 -180 -13 -36 -6 -114 -14
-174 -18 -60 -3 -117 -10 -127 -15 -10 -6 -57 -10 -106 -11 -48 0 -110 -4
-138 -9 -40 -6 -21 -8 90 -10 125 -3 132 -4 60 -9 -158 -12 -33 -18 395 -20
239 -1 462 -5 495 -8 l60 -7 -45 -7 c-25 -4 -126 -11 -225 -15 -141 -6 -171
-10 -140 -17 22 -4 69 -6 105 -3 36 4 79 2 95 -2 49 -14 -73 -20 -421 -22
-171 -1 -329 -6 -350 -12 -23 -5 -335 -13 -739 -18 -1219 -15 -1413 -20 -1448
-34 -18 -8 -62 -14 -100 -15 -81 -2 -137 -19 -72 -22 38 -1 39 -2 10 -8 l-30
-7 30 -10 c47 -17 -178 -24 -840 -27 -687 -4 -956 0 -935 13 12 8 12 10 -4 10
-15 0 -16 3 -6 15 16 20 4 34 -28 33 -45 -2 -613 22 -669 28 -29 3 -53 10 -53
15 0 5 8 9 18 9 10 0 27 6 37 14 18 13 17 14 -13 21 -45 9 -40 21 14 34 51 13
51 25 2 26 -48 0 -45 21 4 28 24 4 135 11 248 17 113 7 234 15 270 19 55 7 42
9 -85 10 -254 3 -547 13 -574 21 -18 5 6 9 74 14 118 9 144 14 124 27 -11 7
-11 9 -1 9 7 0 10 5 7 10 -5 8 11 9 47 5 39 -5 49 -4 38 4 -8 6 -23 11 -32 11
-29 0 -21 18 10 23 15 2 -14 5 -64 6 -129 2 -248 13 -232 21 7 4 128 13 268
19 140 7 284 15 320 18 64 6 64 7 25 14 -22 4 -127 10 -232 14 -147 6 -193 11
-193 20 0 7 -17 16 -37 20 -40 7 -91 55 -58 55 8 0 15 5 15 10 0 6 -7 10 -15
10 -9 0 -21 11 -27 25 -10 22 -8 28 15 49 15 14 27 30 27 35 0 22 48 33 184
42 77 5 160 14 183 19 23 6 84 11 135 11 92 2 92 2 33 9 -33 5 -172 11 -310
15 -246 6 -341 12 -332 21 2 3 53 9 111 13 96 8 109 12 133 35 23 23 24 26 7
27 -18 0 -18 1 1 8 l20 8 -20 6 c-11 3 -77 9 -147 12 -71 4 -128 10 -128 15 0
9 108 18 307 25 192 7 223 11 223 30 0 22 37 55 63 55 14 1 33 16 52 40 17 21
36 39 43 40 6 0 12 2 12 4 0 2 3 12 7 22 4 12 3 15 -5 10 -8 -5 -12 1 -12 18
0 16 -6 26 -15 26 -21 0 -18 11 10 39 14 13 25 27 25 32 0 5 6 9 14 9 25 0 25
81 1 103 -20 17 -20 17 3 36 20 17 20 20 5 23 -16 3 -14 7 10 29 31 30 39 89
12 89 -19 0 -32 29 -18 39 5 3 13 20 16 37 5 25 1 35 -19 53 -27 23 -64 25
-72 4 -2 -7 3 -13 12 -13 9 0 16 -4 16 -9 0 -4 -12 -6 -26 -3 -19 3 -25 1 -20
-7 4 -6 16 -11 27 -11 10 0 19 -4 19 -10 0 -5 -9 -10 -20 -10 -25 0 -27 -20
-2 -21 14 -1 14 -2 -3 -6 -10 -3 -28 -11 -40 -18 -23 -14 -132 -6 -253 20 -40
8 -126 15 -190 16 -211 1 -190 22 36 35 62 4 108 10 102 14 -6 4 15 10 47 13
77 7 203 37 203 48 0 12 -69 29 -122 29 -26 0 -49 4 -52 9 -7 11 21 17 119 27
50 5 64 9 50 15 -17 7 -17 8 7 8 30 1 68 -25 68 -46 0 -7 9 -13 20 -13 11 0
20 6 20 13 0 8 3 8 9 -2 7 -11 13 -12 23 -4 16 12 127 48 183 58 22 4 34 10
28 12 -29 10 16 30 120 53 59 13 107 27 107 32 0 4 5 8 11 8 5 0 7 -5 3 -11
-5 -8 5 -10 32 -5 22 3 47 6 56 7 10 0 23 9 29 20 13 25 43 38 92 38 35 1 37
-1 37 -31z m108 4 c2 -7 -3 -12 -12 -12 -9 0 -16 7 -16 16 0 17 22 14 28 -4z
m2422 -94 c52 -6 99 -14 104 -19 6 -6 4 -9 -6 -9 -9 0 -18 -5 -20 -12 -3 -7
-48 -14 -119 -20 -62 -4 -186 -15 -274 -23 -151 -14 -290 -20 -362 -17 -35 2
-49 26 -38 62 8 26 39 42 95 51 61 10 502 1 620 -13z m-1490 -3 c0 -8 -4 -15
-10 -15 -5 0 -10 7 -10 15 0 8 5 15 10 15 6 0 10 -7 10 -15z m7299 -90 c27
-26 -24 -33 -294 -42 -283 -10 -377 -9 -395 2 -6 4 -16 2 -23 -3 -7 -5 -44
-11 -82 -14 -52 -2 -80 -10 -109 -27 -36 -23 -37 -25 -18 -35 29 -16 22 -31
-12 -27 -16 1 -32 -3 -37 -11 -7 -10 -9 -9 -9 4 0 13 -11 18 -52 20 -59 3 -69
20 -17 29 19 3 41 9 48 13 8 5 17 3 22 -5 8 -11 14 -8 32 14 13 15 28 27 34
27 6 0 13 5 15 11 2 6 42 13 93 16 50 3 93 11 97 16 4 7 12 6 23 -3 13 -11 18
-11 24 -1 6 9 74 15 237 22 126 5 232 11 237 12 26 7 174 -7 186 -18z m-7439
-89 c0 -3 -4 -8 -10 -11 -5 -3 -10 -1 -10 4 0 6 5 11 10 11 6 0 10 -2 10 -4z
m10086 -30 c10 -8 16 -17 13 -20 -3 -3 -36 -10 -75 -15 -81 -11 -494 -23 -447
-13 34 7 33 22 -2 37 -28 13 77 21 306 23 146 2 189 -1 205 -12z m-10076 -122
c0 -2 -7 -4 -15 -4 -8 0 -15 4 -15 10 0 5 7 7 15 4 8 -4 15 -8 15 -10z m4776
-22 c17 -10 16 -11 -11 -12 -17 0 -35 -4 -41 -10 -6 -6 -122 -12 -274 -15
-146 -4 -281 -8 -300 -11 -67 -8 -3125 -27 -3212 -20 -63 6 -88 12 -88 21 0
26 79 33 475 41 1099 23 3415 27 3451 6z m5244 -29 c120 -6 134 -9 81 -13 -99
-8 -561 1 -561 11 0 11 280 12 480 2z m-10130 -18 c0 -8 -7 -15 -15 -15 -26 0
-18 20 13 29 1 1 2 -6 2 -14z m80 0 c0 -8 -7 -15 -15 -15 -9 0 -12 6 -9 15 4
8 10 15 15 15 5 0 9 -7 9 -15z m8043 -22 c9 -9 17 -24 17 -33 0 -45 0 -45
-633 -47 -379 -1 -640 -6 -710 -14 -89 -9 -133 -9 -212 1 -55 7 -125 14 -155
15 -51 1 -55 3 -55 26 0 22 3 24 38 21 20 -2 67 4 104 13 68 17 157 22 323 17
52 -1 210 2 350 6 140 4 404 8 585 9 287 1 332 -1 348 -14z m-1823 -63 c0 -11
-4 -20 -9 -20 -14 0 -23 18 -16 30 10 17 25 11 25 -10z m7437 -54 c178 -4 202
-8 183 -31 -8 -9 -7 -13 2 -12 26 3 128 -15 133 -23 3 -4 -30 -16 -73 -26 -75
-18 -76 -18 -37 -24 37 -5 34 -6 -40 -18 -86 -13 -163 -16 -838 -33 -455 -12
-587 -8 -587 16 0 8 -16 17 -37 21 -71 12 -109 54 -63 69 11 3 20 10 20 15 0
4 28 10 63 13 34 3 100 10 147 16 86 12 686 28 860 24 52 -1 172 -4 267 -7z
m-13867 -40 c0 -2 -7 -9 -15 -16 -12 -10 -15 -10 -15 4 0 9 7 16 15 16 8 0 15
-2 15 -4z m123 -3 c-7 -2 -21 -2 -30 0 -10 3 -4 5 12 5 17 0 24 -2 18 -5z
m107 -2 c0 -6 -4 -13 -10 -16 -5 -3 -10 -2 -10 4 0 5 -10 12 -22 14 -17 3 -14
5 10 6 17 0 32 -3 32 -8z m-20 -41 c0 -5 -18 -10 -40 -10 -22 0 -40 5 -40 10
0 6 18 10 40 10 22 0 40 -4 40 -10z m-133 -6 c-3 -3 -12 -4 -19 -1 -8 3 -5 6
6 6 11 1 17 -2 13 -5z m133 -94 c0 -5 -10 -10 -22 -10 -19 0 -20 2 -8 10 19
13 30 13 30 0z m11360 -90 c0 -12 -173 -12 -210 0 -16 5 18 8 93 9 72 1 117
-3 117 -9z m-4807 -60 l28 -14 -2 -100 c-1 -67 -6 -108 -15 -122 -14 -20 -12
-22 31 -39 53 -20 65 -42 65 -113 0 -99 21 -95 -580 -103 -283 -4 -685 -8
-893 -9 -373 -1 -378 -1 -408 21 -31 22 -32 27 -14 85 5 16 2 23 -15 27 -12 3
-19 10 -16 15 9 15 100 42 143 43 21 0 56 6 78 14 l40 13 -58 1 c-62 1 -97 14
-97 35 0 14 41 36 68 36 29 1 -7 17 -58 25 l-45 8 35 9 c41 11 62 27 54 39 -3
5 -9 7 -13 5 -11 -7 -51 23 -51 38 0 29 168 67 315 72 55 2 264 8 465 14 201
6 379 12 395 14 17 2 140 3 275 2 182 -2 252 -6 273 -16z m-1900 -56 c22 -4
37 -12 37 -20 0 -8 5 -14 10 -14 7 0 7 -6 0 -19 -21 -40 -166 -66 -380 -67
-214 -1 -320 -7 -320 -18 0 -4 -8 -5 -17 -1 -31 13 -296 17 -303 5 -5 -8 -20
-8 -50 -1 -24 5 -47 8 -50 6 -18 -11 -153 -14 -173 -3 -14 7 -80 11 -194 10
-95 0 -173 3 -173 8 0 5 -25 12 -55 15 -39 5 -59 13 -66 26 -5 11 -16 19 -24
19 -21 0 -19 18 3 24 55 16 162 19 841 26 410 3 775 7 811 8 36 1 82 -1 103
-4z m-1234 -170 c2 -2 -12 -4 -33 -4 -22 0 -35 4 -31 10 5 9 52 4 64 -6z m141
6 c12 -8 9 -10 -12 -10 -16 0 -28 5 -28 10 0 13 20 13 40 0z m-2486 -159 c3
-5 -1 -12 -10 -15 -22 -9 -24 -8 -24 9 0 16 25 21 34 6z m10443 -257 c-3 -3
-12 -4 -19 -1 -8 3 -5 6 6 6 11 1 17 -2 13 -5z m-4547 -69 c69 -1 186 -4 260
-5 102 -2 125 -4 95 -11 -22 -4 -67 -8 -100 -8 -113 -1 -265 -23 -265 -39 0
-11 -12 -13 -52 -10 -48 3 -53 1 -65 -24 -13 -25 -17 -26 -131 -35 -64 -4
-292 -7 -507 -6 -404 2 -406 2 -464 45 -13 10 -37 18 -54 18 -16 0 -44 9 -63
20 -31 20 -50 21 -351 22 -274 2 -296 3 -158 8 139 6 785 25 1135 34 104 2
392 -1 720 -9z m-9130 -143 c0 -5 -7 -9 -15 -9 -8 0 -15 4 -15 9 0 4 7 8 15 8
8 0 15 -4 15 -8z m8960 -137 c31 -12 13 -14 -180 -16 -368 -6 -652 -4 -656 2
-8 13 47 16 326 19 157 1 287 4 289 6 10 10 189 1 221 -11z m335 -5 c-11 -5
-74 -8 -140 -8 -75 0 -111 3 -95 8 35 11 261 11 235 0z m283 3 c-21 -2 -57 -2
-80 0 -24 2 -7 4 37 4 44 0 63 -2 43 -4z m4004 -220 c39 -14 45 -19 35 -33 -6
-10 -18 -15 -29 -12 -10 2 -24 0 -31 -6 -15 -13 -144 1 -160 17 -6 6 -27 11
-46 12 -31 0 -27 3 29 19 84 23 143 24 202 3z m-12719 -40 c-57 -2 -149 -2
-205 0 -57 1 -11 3 102 3 113 0 159 -2 103 -3z m200 0 c-13 -2 -35 -2 -50 0
-16 2 -5 4 22 4 28 0 40 -2 28 -4z m180 0 c-24 -2 -62 -2 -85 0 -24 2 -5 4 42
4 47 0 66 -2 43 -4z m12916 -137 c-8 -8 -98 -10 -105 -3 -4 4 19 7 51 7 32 0
56 -2 54 -4z m-132 -32 c-3 -3 -12 -4 -19 -1 -8 3 -5 6 6 6 11 1 17 -2 13 -5z
m-4932 -98 c270 -35 445 -63 454 -72 3 -4 -5 -4 -19 -1 -14 3 -104 14 -200 23
-267 27 -727 22 -894 -9 -6 -1 -10 6 -10 16 1 10 -5 17 -17 17 -10 0 -20 4
-24 10 -6 9 44 26 100 34 65 9 497 -4 610 -18z m645 -91 c63 -8 151 -22 195
-30 196 -36 247 -46 355 -70 63 -14 135 -30 160 -35 25 -5 65 -16 90 -25 25
-9 78 -23 120 -31 41 -9 92 -22 115 -29 22 -7 105 -30 185 -50 80 -21 219 -62
310 -92 91 -30 206 -66 255 -79 198 -52 358 -101 470 -144 55 -21 147 -53 205
-71 58 -18 109 -36 114 -41 22 -18 -38 -6 -130 28 -55 19 -139 49 -189 65 -49
16 -104 36 -122 44 -17 8 -39 15 -48 15 -20 0 -107 24 -185 51 -30 10 -75 20
-100 23 -25 2 -110 25 -190 51 -80 25 -239 73 -353 105 -115 33 -212 62 -218
65 -19 12 -168 52 -174 47 -3 -3 -15 -1 -28 5 -76 36 -571 142 -937 202 -91
14 -23 12 100 -4z m-1816 -32 l99 -8 -61 -30 c-34 -16 -62 -33 -62 -37 0 -12
41 -20 68 -12 44 12 53 13 145 20 61 4 87 3 87 -5 0 -6 16 -10 38 -9 36 1 36
1 5 5 -57 7 -36 22 22 16 34 -4 55 -2 55 4 0 6 29 13 64 17 67 7 146 -1 146
-14 0 -4 -35 -10 -77 -14 -77 -7 -279 -49 -318 -66 -11 -5 -47 -18 -80 -29
-60 -20 -206 -82 -215 -91 -3 -3 -27 -16 -55 -30 -27 -13 -101 -55 -163 -92
-62 -37 -115 -68 -117 -68 -4 0 -94 -61 -236 -159 -35 -25 -65 -48 -67 -53 -2
-4 -9 -8 -17 -8 -7 0 -18 -7 -25 -15 -11 -14 -101 -78 -142 -101 -10 -6 -29
-20 -41 -30 -12 -11 -51 -41 -87 -69 -36 -27 -67 -52 -70 -55 -3 -3 -25 -21
-50 -40 -25 -19 -61 -49 -80 -67 -19 -18 -39 -33 -43 -33 -4 0 -30 -21 -58
-47 l-50 -47 -117 -7 c-64 -4 -151 -5 -192 -1 l-75 7 36 21 c20 12 44 28 55
37 51 42 131 99 267 190 82 54 146 101 144 104 -3 2 -34 -9 -70 -26 -36 -17
-89 -40 -117 -51 -74 -29 -277 -137 -302 -160 -25 -23 -23 -23 -88 -9 -29 6
-48 15 -44 21 3 5 15 8 25 5 12 -3 16 -1 13 5 -5 7 7 9 32 5 34 -4 66 8 254
99 278 135 294 143 429 231 63 40 120 73 127 73 15 0 52 20 141 76 111 70 242
150 288 175 11 6 43 23 70 39 28 16 79 44 115 62 36 18 68 37 72 42 5 8 15 10
61 15 5 1 5 6 2 11 -3 6 0 10 7 10 7 0 42 14 78 32 36 17 81 36 101 42 20 6
38 15 40 20 2 5 -31 22 -74 37 -62 23 -137 62 -137 72 0 4 146 -2 244 -10z
m-434 -13 c-8 -5 -19 -10 -25 -10 -5 0 -3 5 5 10 8 5 20 10 25 10 6 0 3 -5 -5
-10z m-40 -15 c0 -3 -31 -20 -68 -39 -91 -46 -437 -242 -522 -296 -16 -10
-253 -145 -330 -188 -25 -14 -82 -47 -128 -73 -45 -27 -84 -49 -87 -49 -2 0
-30 -15 -62 -34 -191 -111 -434 -246 -443 -246 -20 0 -2 15 54 44 31 16 56 33
56 37 0 4 -33 -10 -72 -32 -59 -32 -79 -39 -105 -34 -36 7 -43 19 -15 29 9 4
46 24 82 45 36 22 102 58 148 82 46 23 85 46 88 51 3 4 9 6 13 3 12 -7 71 24
71 37 0 5 6 8 13 5 10 -4 97 38 192 93 17 10 55 31 85 47 105 57 425 236 503
280 43 25 80 43 83 41 2 -3 -38 -31 -91 -63 -52 -33 -93 -61 -91 -63 2 -2 22
8 45 22 22 14 43 26 45 26 3 0 33 16 67 36 46 27 58 39 48 46 -10 7 -8 8 8 3
14 -4 38 4 70 24 53 32 324 170 336 171 4 0 7 -2 7 -5z m178 -18 l31 -13 -44
-13 c-30 -9 -42 -17 -38 -27 7 -19 27 -18 73 6 68 35 44 7 -33 -38 -40 -24
-115 -75 -167 -113 -71 -53 -100 -69 -126 -69 -24 0 -63 -20 -146 -73 -171
-112 -328 -199 -328 -184 0 2 37 26 83 53 45 26 93 55 107 64 14 9 43 28 65
42 22 14 69 44 105 67 36 22 74 41 86 41 12 0 38 11 58 25 20 14 51 36 70 48
19 13 52 38 74 55 22 18 44 32 50 32 5 0 12 7 16 15 7 18 -15 20 -32 3 -7 -7
-29 -13 -50 -15 -20 -1 -38 -7 -40 -13 -2 -5 -11 -10 -21 -10 -9 0 -21 -4 -26
-9 -6 -4 -26 -13 -45 -20 l-35 -12 27 26 c35 32 74 56 173 104 44 22 81 40 81
40 1 1 16 -5 32 -12z m1157 7 c-44 -7 -225 -9 -208 -3 10 4 65 7 123 7 58 0
96 -2 85 -4z m203 -1 c-32 -2 -84 -2 -115 0 -32 2 -6 3 57 3 63 0 89 -1 58 -3z
m4842 -13 c12 -8 9 -10 -13 -10 -16 0 -26 4 -22 10 8 12 16 12 35 0z m-830
-19 c5 -9 10 -10 14 -2 15 24 171 3 164 -22 -3 -7 -31 -21 -64 -33 -32 -11
-72 -26 -89 -33 -16 -7 -39 -14 -50 -16 -11 -1 -27 -5 -35 -9 -18 -8 -389 -24
-407 -18 -7 2 -13 11 -13 18 0 8 -10 19 -22 24 -13 5 -17 9 -10 9 6 1 12 14
12 30 0 49 31 60 177 63 232 5 314 2 323 -11z m460 -56 c0 -15 -69 -22 -179
-17 -57 3 -70 6 -61 16 6 9 31 13 66 11 30 -1 57 1 58 4 2 3 29 4 60 3 38 -3
56 -8 56 -17z m-5880 -81 c-45 -36 -84 -63 -86 -61 -8 8 142 126 159 127 5 0
-28 -30 -73 -66z m1245 -39 c5 -33 3 -48 -8 -60 -19 -18 -31 -70 -21 -86 5 -9
-5 -10 -37 -6 -24 4 -109 9 -189 12 -255 10 -312 15 -306 30 6 17 -16 26 -35
14 -8 -5 -21 -9 -28 -9 -24 0 0 17 49 35 163 60 391 109 522 114 l47 1 6 -45z
m750 -24 c33 -6 77 -13 97 -16 44 -7 51 -16 39 -47 -5 -13 -19 -48 -31 -78
-11 -30 -25 -64 -30 -75 -5 -11 -14 -32 -20 -47 -11 -32 -31 -35 -84 -13 -20
8 -36 12 -36 9 0 -4 -7 -1 -15 6 -8 6 -19 8 -26 4 -9 -5 -10 5 -6 37 4 24 7
85 8 134 2 100 4 108 27 101 10 -3 44 -9 77 -15z m2307 -90 c59 -16 158 -45
220 -65 298 -93 404 -126 412 -126 4 0 22 -6 39 -14 18 -8 79 -33 136 -56 58
-23 116 -48 130 -56 l26 -15 -25 7 c-14 3 -45 15 -69 26 -24 11 -91 33 -150
49 -58 17 -185 54 -281 84 -96 29 -191 58 -210 63 -54 16 -404 122 -415 126
-5 3 10 5 35 5 25 1 93 -12 152 -28z m-5022 -179 c-36 -21 -153 -85 -260 -142
-107 -57 -222 -120 -255 -140 -33 -20 -67 -39 -75 -43 -8 -4 -71 -43 -139 -87
-68 -44 -128 -79 -134 -77 -19 6 268 187 493 310 221 120 410 217 423 217 7 0
-17 -17 -53 -38z m3825 -68 c33 -14 68 -28 78 -31 17 -5 24 -23 8 -23 -4 0 -7
-13 -5 -30 3 -26 0 -30 -29 -35 -51 -10 -132 -2 -131 13 1 6 2 39 3 72 0 33 4
60 9 60 4 0 34 -12 67 -26z m-1250 -2 c-2 -25 -14 -42 -31 -42 -12 0 -11 6 6
30 25 35 27 36 25 12z m3128 -56 c373 -124 437 -149 420 -159 -5 -3 -33 3 -63
13 -95 31 -431 137 -515 162 -55 16 -81 29 -83 41 -2 9 2 17 8 17 6 0 111 -33
233 -74z m-2383 -12 c0 -2 -7 -4 -15 -4 -8 0 -15 4 -15 10 0 5 7 7 15 4 8 -4
15 -8 15 -10z m2239 -10 c9 -8 -45 -2 -64 6 -14 7 -8 8 20 3 22 -3 42 -7 44
-9z m141 -45 c0 -10 -21 -12 -44 -3 -27 10 -18 21 14 16 17 -2 30 -8 30 -13z
m98 -40 c-6 -4 -18 -4 -27 -1 -10 4 -11 7 -3 10 7 2 9 8 6 14 -3 5 3 4 15 -3
13 -9 16 -16 9 -20z m-3088 17 c0 -3 -7 -12 -16 -20 -21 -22 -51 -20 -64 4
-10 19 -8 20 35 20 25 0 45 -2 45 -4z m3524 -47 c-3 -5 -10 -7 -15 -3 -5 3 -7
10 -3 15 3 5 10 7 15 3 5 -3 7 -10 3 -15z m-9004 1 c8 0 33 0 55 0 22 0 52 -2
68 -6 15 -3 27 -1 27 5 0 12 64 3 97 -14 33 -17 7 -26 -43 -14 -52 12 -51 12
-57 -12 -6 -21 2 -22 66 -3 9 3 17 1 17 -5 0 -5 17 -11 38 -13 30 -2 38 -7 40
-25 2 -14 10 -23 21 -23 10 0 21 -3 25 -7 3 -4 19 -8 34 -9 15 -1 39 -9 55
-17 l27 -14 -47 -6 c-27 -3 -115 -15 -198 -27 -82 -11 -203 -27 -267 -35 -64
-8 -123 -17 -130 -20 -7 -3 -76 -14 -153 -24 -487 -68 -1003 -195 -1367 -337
l-88 -34 -812 0 c-810 0 -985 6 -1106 36 -34 8 -66 12 -71 9 -5 -3 -13 -1 -16
5 -4 6 -15 8 -25 5 -10 -3 -21 -2 -24 3 -3 5 -16 7 -30 5 -33 -7 -42 13 -9 22
21 5 24 8 12 16 -9 6 -10 9 -1 9 6 0 12 9 12 20 0 20 -2 20 -73 24 -11 1 -25
9 -32 19 -7 9 -22 17 -34 17 -11 0 -21 5 -21 10 0 6 16 10 36 10 26 0 43 7 60
25 13 14 33 26 46 27 13 0 3 4 -22 7 -45 6 -45 6 35 19 99 16 127 37 40 30
-33 -2 -73 -1 -90 3 -27 6 -26 7 14 8 40 1 43 2 26 14 -16 13 -15 15 22 20 61
10 203 16 628 27 523 14 752 28 845 51 67 17 113 39 82 39 -28 0 -8 20 42 45
32 16 63 24 74 21 12 -4 25 1 37 14 18 20 18 20 -51 21 l-69 2 57 6 c31 3 60
9 64 14 4 4 2 7 -5 7 -7 0 -9 5 -6 10 3 6 17 10 31 10 13 0 24 -4 24 -10 0 -5
25 -10 55 -10 41 0 55 4 55 15 0 12 46 14 305 15 201 0 305 -3 305 -10 0 -5 7
-10 15 -10 8 0 15 4 15 10 0 12 286 16 890 13 239 -1 442 -2 450 -3z m3187 -6
c-3 -3 -12 -4 -19 -1 -8 3 -5 6 6 6 11 1 17 -2 13 -5z m5500 0 c-3 -3 -12 -4
-19 -1 -8 3 -5 6 6 6 11 1 17 -2 13 -5z m-10982 -14 c4 -6 -5 -10 -20 -10 -15
0 -24 4 -20 10 3 6 12 10 20 10 8 0 17 -4 20 -10z m11062 4 c-3 -3 -12 -4 -19
-1 -8 3 -5 6 6 6 11 1 17 -2 13 -5z m104 -50 c36 -7 70 -14 75 -15 5 -1 17 1
26 5 9 4 25 3 35 -3 17 -10 17 -10 -2 -12 -17 -1 -16 -2 5 -9 14 -4 34 -8 45
-9 18 0 17 2 -5 15 l-25 15 30 -6 c30 -7 74 -12 295 -40 139 -17 400 -59 500
-80 l65 -14 -60 5 c-33 3 -82 9 -110 14 -27 5 -106 17 -175 25 -172 22 -312
42 -392 55 -37 6 -76 10 -85 8 -19 -4 246 -51 607 -109 74 -12 140 -26 145
-32 11 -10 2 -9 -170 18 -55 9 -136 20 -181 26 -73 9 -153 22 -369 63 -155 30
-415 105 -415 120 0 2 21 -3 48 -11 26 -8 77 -21 113 -29z m-66 36 c3 -5 2
-10 -4 -10 -5 0 -13 5 -16 10 -3 6 -2 10 4 10 5 0 13 -4 16 -10z m-5527 -36
c12 -4 22 -12 22 -19 0 -8 25 -14 74 -18 91 -8 108 -14 104 -39 -3 -18 -28
-37 -68 -52 -8 -3 -22 -10 -30 -14 -26 -16 -84 -40 -110 -48 -14 -4 -27 -10
-30 -14 -8 -12 -77 -21 -201 -27 -115 -5 -116 -5 -124 18 -10 33 -23 97 -26
124 0 6 -5 16 -11 23 -6 6 -7 12 -2 12 9 0 112 18 149 26 11 2 49 10 85 18 72
15 133 19 168 10z m6126 -19 c132 -16 149 -18 356 -55 63 -11 142 -25 175 -30
33 -6 75 -12 93 -15 19 -4 32 -12 32 -20 0 -19 -13 -19 -103 -1 -231 46 -421
78 -606 101 -131 17 -141 20 -141 37 0 6 12 8 32 4 17 -3 90 -13 162 -21z
m571 -45 c17 -7 15 -9 -10 -8 -16 0 -41 4 -55 8 -23 7 -22 8 10 8 19 0 44 -3
55 -8z m-8767 -25 c17 -4 32 -14 32 -21 0 -17 -16 -19 -26 -3 -4 7 -27 9 -63
5 -31 -3 -105 -8 -165 -11 -126 -6 -337 -24 -347 -31 -7 -4 -110 -14 -334 -34
-55 -5 -125 -13 -155 -19 -30 -6 -100 -15 -155 -21 -55 -5 -140 -17 -190 -25
-271 -44 -413 -65 -435 -64 -14 0 7 7 45 14 39 7 108 21 155 30 88 16 109 20
520 78 254 37 572 76 815 101 139 14 241 14 303 1z m4692 11 c0 -2 -3 -11 -6
-20 -9 -23 -34 -20 -34 4 0 13 7 20 20 20 11 0 20 -2 20 -4z m-4260 -20 c0 -7
-14 -16 -31 -20 -44 -9 -59 -8 -59 4 0 6 9 10 20 10 11 0 20 5 20 10 0 6 11
10 25 10 15 0 25 -6 25 -14z m-595 -36 c-27 -12 -43 -12 -25 0 8 5 22 9 30 9
10 0 8 -3 -5 -9z m-87 -8 c8 -6 -3 -9 -30 -10 -31 -1 -39 1 -28 8 18 12 41 12
58 2z m-95 -9 c-7 -2 -19 -2 -25 0 -7 3 -2 5 12 5 14 0 19 -2 13 -5z m525 -24
c57 -22 47 -23 -33 -4 -61 14 -131 11 -350 -15 -44 -5 -114 -12 -155 -14 -327
-23 -640 -54 -760 -76 -30 -6 -85 -11 -122 -12 -37 -2 -68 -6 -68 -9 0 -12
-134 -21 -159 -11 -24 9 -24 9 -3 14 13 4 20 2 16 -4 -9 -15 88 2 104 18 16
17 49 18 54 3 3 -9 10 -9 26 0 12 6 50 14 85 17 34 3 96 10 137 15 151 21 220
29 475 54 143 13 301 30 350 35 190 23 328 19 403 -11z m8957 19 c-16 -5 -39
-13 -50 -18 -18 -7 -85 -22 -167 -37 -38 -7 -65 4 -50 19 7 7 12 20 12 30 0
17 12 18 143 17 108 0 135 -3 112 -11z m-9557 -5 c-16 -2 -40 -2 -55 0 -16 2
-3 4 27 4 30 0 43 -2 28 -4z m9242 -19 c0 -2 -9 -4 -20 -4 -11 0 -20 4 -20 9
0 5 9 7 20 4 11 -3 20 -7 20 -9z m-8503 -40 c-3 -3 -12 -4 -19 -1 -8 3 -5 6 6
6 11 1 17 -2 13 -5z m32 -24 c69 -13 73 -17 25 -25 -22 -4 -72 -15 -112 -26
-40 -10 -101 -19 -137 -19 -36 0 -65 -4 -65 -9 0 -5 -26 -12 -57 -16 -31 -4
-67 -11 -80 -16 -15 -5 -23 -5 -23 2 0 12 -72 1 -81 -13 -3 -5 -32 -8 -65 -7
-105 4 -487 -22 -537 -36 -26 -8 -61 -12 -78 -8 -19 3 -34 1 -38 -6 -10 -15
-141 -26 -141 -12 0 20 -228 2 -555 -43 -158 -22 -212 -33 -243 -51 -15 -9
-19 -14 -10 -11 35 10 88 18 88 12 0 -3 -19 -10 -42 -16 -24 -6 -57 -18 -75
-26 -17 -8 -38 -14 -47 -14 -9 0 -16 -5 -16 -10 0 -6 10 -8 23 -5 65 15 448
63 767 94 214 22 761 62 1300 96 631 40 749 50 763 64 6 6 29 11 52 11 28 0
36 -3 25 -10 -12 -7 -10 -11 10 -18 27 -10 69 -4 51 8 -14 8 480 12 532 4 22
-3 41 -13 44 -22 4 -10 12 -21 20 -25 7 -4 13 -25 13 -45 0 -27 3 -33 10 -22
7 12 12 12 22 2 6 -6 9 -12 5 -12 -4 0 0 -14 8 -30 9 -17 13 -35 10 -40 -3 -6
6 -10 21 -10 21 0 25 -4 21 -19 -3 -12 1 -22 9 -25 8 -3 19 -17 24 -31 5 -14
18 -28 27 -32 10 -4 35 -17 55 -30 21 -13 46 -23 56 -23 10 0 35 -9 55 -19 32
-16 51 -18 114 -14 55 5 74 3 69 -5 -8 -13 37 -27 54 -17 6 4 16 2 23 -3 7 -5
26 -12 43 -15 17 -3 56 -17 87 -31 31 -15 63 -26 71 -26 9 0 16 -7 16 -16 0
-12 5 -11 20 7 l20 24 20 -24 c20 -23 20 -23 20 -2 0 24 0 24 37 10 33 -13
116 -12 121 2 5 12 82 12 82 -1 0 -5 18 -10 40 -10 31 0 40 4 40 17 0 9 3 14
6 10 4 -3 21 1 38 10 23 13 27 18 14 21 -9 1 -21 16 -28 32 -7 17 -16 27 -21
24 -5 -3 -10 0 -10 5 -1 6 -2 16 -3 23 0 7 -12 15 -26 19 l-25 6 30 13 30 13
-42 9 c-24 5 -43 13 -43 18 0 15 -46 60 -61 60 -8 0 -25 14 -38 30 -13 17 -28
30 -35 30 -6 0 -19 9 -29 20 -9 11 -24 20 -32 20 -9 0 -21 13 -26 30 -6 16
-15 28 -19 25 -15 -9 -40 7 -38 24 2 9 -7 20 -19 26 -13 5 -23 14 -23 20 0 18
41 46 63 44 12 -2 31 0 42 4 21 6 322 17 647 22 108 2 201 5 205 8 7 4 424 20
518 19 188 -2 205 -3 205 -14 0 -8 -31 -10 -112 -6 -62 3 -135 2 -163 -2 -38
-7 -30 -7 33 -3 83 5 101 0 60 -17 l-23 -9 23 -7 c13 -4 22 -14 22 -25 0 -15
7 -19 40 -19 22 0 40 -4 40 -9 0 -5 10 -11 23 -14 12 -2 30 -8 40 -12 15 -6
17 -1 17 35 0 36 -2 41 -17 35 -41 -17 -63 -18 -63 -1 0 12 -10 16 -40 16 -22
0 -40 5 -40 10 0 6 18 10 40 10 22 0 40 -4 40 -9 0 -13 90 -19 91 -6 1 5 1 18
0 28 -1 9 4 17 13 17 19 0 30 -17 16 -25 -8 -5 -7 -11 1 -21 16 -20 32 -6 25
22 -6 23 -4 24 44 24 27 0 50 -4 50 -10 0 -5 18 -10 40 -10 22 0 40 5 40 10 0
6 25 10 55 10 30 0 55 5 55 10 0 6 33 10 80 10 45 0 80 -4 80 -10 0 -19 -43
-32 -93 -28 -47 3 -52 1 -55 -19 -3 -21 -7 -22 -65 -17 -42 4 -57 2 -48 -4 10
-7 11 -18 6 -38 l-8 -29 -6 30 c-5 23 -12 31 -34 33 -22 3 -27 -1 -27 -17 0
-12 -4 -21 -10 -21 -5 0 -10 9 -10 20 0 13 -7 20 -20 20 -26 0 -60 -34 -60
-60 0 -24 45 -28 54 -5 3 8 10 15 16 15 5 0 10 -7 10 -15 0 -8 5 -15 10 -15 6
0 10 7 10 15 0 8 7 15 15 15 8 0 15 -7 15 -15 0 -8 7 -15 15 -15 8 0 15 -4 15
-10 0 -5 -18 -10 -40 -10 -22 0 -40 5 -40 10 0 6 -7 10 -15 10 -8 0 -15 -4
-15 -10 0 -5 -11 -10 -25 -10 -14 0 -25 5 -25 10 0 6 -18 10 -40 10 -22 0 -40
-5 -40 -10 0 -7 -6 -7 -19 0 -43 22 -84 4 -43 -19 15 -9 15 -12 2 -21 -11 -7
-16 -5 -19 7 -4 22 -26 43 -43 43 -8 0 -20 -9 -28 -20 -13 -17 -26 -20 -102
-20 -78 0 -87 -2 -93 -20 -3 -11 -10 -20 -15 -20 -5 0 -12 9 -15 20 -7 21 -25
28 -25 10 0 -5 -18 -10 -40 -10 -22 0 -40 -4 -40 -10 0 -5 5 -10 10 -10 6 0
10 -18 10 -40 0 -22 -4 -40 -10 -40 -5 0 -10 9 -10 20 0 17 -7 20 -40 20 -33
0 -40 3 -40 20 0 13 -7 20 -20 20 -17 0 -20 -7 -20 -40 0 -33 3 -40 20 -40 11
0 20 -3 20 -8 0 -4 -18 -6 -40 -4 -38 4 -40 6 -40 38 0 41 -6 42 -42 7 -24
-23 -28 -24 -34 -10 -4 12 -18 17 -45 17 -32 0 -39 -3 -39 -20 0 -11 -4 -20
-10 -20 -5 0 -10 9 -10 20 0 11 5 20 10 20 6 0 10 9 10 20 0 27 -16 26 -23 -1
-5 -17 -11 -20 -31 -17 -22 4 -26 2 -26 -18 0 -19 5 -24 28 -24 23 -1 24 -2
10 -11 -18 -10 -25 -39 -10 -39 16 0 52 -37 52 -54 0 -12 10 -16 40 -16 22 0
40 5 40 10 0 6 18 10 41 10 41 0 41 0 37 -33 -3 -32 -3 -32 34 -28 37 3 38 4
39 45 1 22 4 31 6 19 2 -13 11 -23 18 -23 8 0 19 -9 25 -20 6 -11 17 -20 25
-20 8 0 15 -9 15 -20 0 -11 5 -20 10 -20 6 0 10 9 10 20 0 15 7 20 24 20 16 0
27 -7 31 -20 5 -16 15 -20 46 -20 32 0 39 3 39 20 0 17 -7 20 -40 20 -22 0
-40 5 -40 10 0 6 18 10 40 10 22 0 40 -4 40 -10 0 -5 18 -10 40 -10 33 0 40
-3 40 -20 0 -17 7 -20 40 -20 33 0 40 3 40 20 0 36 18 21 25 -20 4 -22 11 -40
16 -40 5 0 16 18 25 40 17 43 38 52 47 20 3 -12 14 -20 26 -20 12 0 21 -4 21
-10 0 -6 34 -10 81 -10 78 0 80 -1 73 -22 -6 -19 -3 -18 19 7 24 29 26 29 45
12 15 -14 21 -15 25 -5 4 10 7 11 18 1 7 -7 23 -13 36 -13 12 0 37 -9 55 -20
21 -12 51 -20 81 -20 40 0 47 -3 47 -20 0 -16 7 -20 30 -20 17 0 30 5 30 10 0
15 37 12 43 -4 7 -19 -3 -28 -18 -16 -9 8 -11 3 -7 -17 3 -16 12 -33 21 -40
14 -11 14 -12 -4 -13 -28 0 43 -37 86 -44 19 -3 97 -8 174 -10 135 -5 141 -4
158 17 17 22 17 22 32 3 12 -16 15 -17 15 -4 0 9 -6 19 -12 22 -9 4 -9 8 -2
11 6 3 10 28 9 58 -1 28 0 37 2 19 5 -42 22 -38 46 11 14 28 24 36 37 32 12
-4 25 3 38 19 17 23 27 25 111 28 89 3 91 2 91 -19 0 -20 5 -23 40 -23 22 0
40 -4 40 -10 0 -5 18 -10 40 -10 22 0 40 -4 40 -10 0 -5 9 -10 20 -10 11 0 20
4 20 9 0 5 21 9 48 8 26 0 52 1 57 3 6 1 29 2 53 1 35 -1 42 -4 42 -22 0 -11
13 -34 29 -50 35 -35 78 -38 104 -9 14 17 29 20 102 20 50 0 85 4 85 10 0 6
18 10 40 10 35 0 40 3 41 23 0 12 3 16 6 10 6 -16 63 -17 63 -1 0 6 3 9 6 6 3
-4 22 0 41 8 33 14 37 14 59 -7 23 -22 24 -22 44 -4 17 15 20 16 20 2 0 -8 -6
-18 -12 -21 -7 -3 -2 -3 12 0 17 3 34 -2 49 -15 13 -11 31 -23 41 -26 10 -3
21 -12 24 -20 3 -8 12 -15 20 -15 8 0 27 -5 43 -11 26 -10 27 -11 10 -24 -10
-7 -27 -11 -37 -8 -15 4 -20 0 -20 -16 0 -16 -6 -21 -24 -21 -13 0 -26 -3 -28
-7 -3 -9 -89 -53 -101 -53 -5 0 -23 -11 -41 -25 -18 -14 -36 -25 -41 -25 -4 0
-41 -22 -82 -50 -41 -27 -80 -51 -86 -51 -7 -1 -22 -3 -35 -4 -31 -3 -40 -14
-22 -26 12 -9 12 -10 -3 -5 -10 3 -36 9 -57 12 -32 5 -39 3 -44 -14 -10 -30
-35 -49 -45 -33 -6 9 -15 9 -34 2 -15 -6 -41 -8 -58 -4 -25 5 -31 2 -36 -16
-7 -27 -33 -28 -33 0 0 11 -5 29 -10 40 -7 12 -7 26 -2 37 5 9 12 35 15 57 4
26 4 33 -2 20 -7 -17 -10 -15 -19 17 -13 49 -38 72 -76 74 -73 5 -1292 3
-1401 -1 -66 -3 -334 -7 -595 -10 -261 -3 -650 -10 -865 -15 -687 -17 -1222
-29 -1510 -35 -154 -3 -399 -10 -545 -15 -146 -5 -420 -14 -610 -20 -341 -11
-457 -21 -515 -45 -16 -6 -47 -15 -67 -19 -21 -4 -38 -11 -38 -16 0 -6 -6 -10
-14 -10 -7 0 -19 -7 -26 -15 -7 -8 -19 -15 -26 -15 -8 0 -14 7 -14 15 0 20
-24 19 -41 -1 -8 -9 -21 -13 -35 -10 -15 4 -26 1 -32 -10 -8 -15 -11 -15 -31
5 -16 16 -33 21 -73 21 -45 0 -58 5 -85 30 -18 17 -36 30 -40 30 -5 0 -32 16
-62 35 -29 19 -56 35 -60 35 -3 0 -33 13 -66 29 -33 15 -105 43 -160 61 -55
18 -109 37 -120 41 -42 16 -171 37 -265 44 -19 2 -55 -1 -80 -5 -25 -5 -81
-11 -125 -15 -49 -4 -87 -13 -97 -22 -11 -10 -29 -14 -48 -11 -17 3 -27 1 -23
-3 4 -4 24 -10 43 -12 19 -2 6 -3 -30 -1 -44 2 -58 0 -45 -6 17 -7 14 -9 -14
-9 -104 -2 -375 -82 -500 -147 -14 -8 -30 -14 -35 -14 -5 0 -24 -12 -43 -26
-31 -24 -40 -25 -90 -19 -31 4 -62 9 -70 12 -7 3 -13 1 -13 -4 0 -6 25 -15 55
-22 30 -7 55 -17 55 -23 0 -6 -9 -8 -20 -5 -10 3 -19 2 -18 -2 1 -3 -37 -45
-85 -94 -48 -48 -87 -92 -87 -97 0 -6 -5 -10 -11 -10 -16 0 -48 -42 -49 -62 0
-10 -4 -18 -10 -18 -9 0 -27 -14 -75 -60 -11 -11 -29 -36 -40 -57 -10 -21 -27
-50 -37 -65 -10 -14 -18 -33 -18 -41 0 -8 -10 -27 -22 -42 -14 -19 -21 -41
-21 -71 0 -40 -3 -44 -24 -44 -13 0 -22 -4 -19 -9 7 -11 -41 -107 -70 -138
l-23 -25 -22 36 c-11 20 -25 36 -29 36 -4 0 -11 20 -14 45 -8 51 -15 53 -87
32 -33 -10 -47 -11 -54 -3 -40 46 -42 53 -48 199 -2 43 -9 83 -16 90 -7 7 -40
12 -78 12 l-66 0 -23 -65 c-12 -36 -25 -77 -28 -92 -5 -23 -12 -28 -36 -28
-17 0 -30 5 -30 10 0 6 -9 19 -19 29 -28 28 -42 57 -35 75 3 9 2 16 -3 16 -14
0 -36 152 -23 160 6 3 11 37 13 76 l2 69 -45 48 c-39 42 -49 48 -75 43 -16 -2
-24 -2 -17 1 10 4 10 9 -3 23 -32 35 7 120 55 120 12 0 127 87 178 134 18 17
38 31 45 32 7 0 36 2 65 2 61 2 68 15 15 28 l-38 9 120 59 c66 33 131 65 145
72 14 7 30 13 35 14 6 2 15 4 20 5 12 3 232 83 260 95 20 8 90 29 275 81 58
17 114 34 125 38 44 19 104 30 185 36 47 3 112 7 145 9 33 3 87 13 120 24 33
11 76 23 95 26 l35 7 -32 -15 c-18 -8 -33 -17 -33 -19 0 -2 57 12 128 30 70
18 186 49 257 67 145 38 192 54 161 55 -25 1 -16 10 15 16 42 9 142 26 208 36
35 5 66 11 70 14 4 2 108 13 232 24 123 12 269 25 324 31 55 6 183 17 284 25
197 16 325 30 406 44 63 11 292 5 364 -9z m4887 -25 c-13 -56 -26 -58 -26 -5
0 54 -20 51 -22 -2 l-1 -43 -4 42 c-4 36 -7 42 -31 46 -15 2 0 5 34 6 l60 1
-10 -45z m3804 28 c57 -6 60 -7 39 -19 -16 -8 -31 -9 -49 -2 -14 5 -45 13 -70
18 -37 6 -39 8 -14 9 17 0 59 -2 94 -6z m-4180 -28 c0 -11 -11 -15 -40 -15
-29 0 -40 4 -40 15 0 11 11 15 40 15 29 0 40 -4 40 -15z m-4285 -14 l50 -7
-75 -6 c-56 -4 -80 -2 -95 8 -18 13 -16 14 25 13 25 0 68 -4 95 -8z m4125 -16
c0 -8 -7 -15 -15 -15 -16 0 -20 12 -8 23 11 12 23 8 23 -8z m4487 -17 c32 -34
56 -108 34 -108 -10 0 -15 14 -12 33 1 5 -4 7 -11 5 -17 -6 -48 34 -48 61 0
12 -6 21 -15 21 -8 0 -15 5 -15 10 0 21 37 9 67 -22z m-4727 -22 c0 -13 7 -26
15 -30 19 -7 20 -26 2 -26 -14 0 -37 40 -37 65 0 8 5 15 10 15 6 0 10 -11 10
-24z m80 8 c0 -9 -5 -14 -12 -12 -18 6 -21 28 -4 28 9 0 16 -7 16 -16z m267
10 c-3 -3 -12 -4 -19 -1 -8 3 -5 6 6 6 11 1 17 -2 13 -5z m333 -4 c0 -5 -2
-10 -4 -10 -3 0 -8 5 -11 10 -3 6 -1 10 4 10 6 0 11 -4 11 -10z m-10280 -10
c0 -5 -12 -10 -26 -10 -14 0 -23 4 -19 10 3 6 15 10 26 10 10 0 19 -4 19 -10z
m10020 0 c0 -5 -4 -10 -10 -10 -5 0 -10 5 -10 10 0 6 5 10 10 10 6 0 10 -4 10
-10z m-6827 -7 c-7 -2 -19 -2 -25 0 -7 3 -2 5 12 5 14 0 19 -2 13 -5z m7167
-2 c0 -5 -11 -11 -25 -13 -26 -5 -35 6 -12 15 20 9 37 8 37 -2z m-70 -21 c0
-5 -11 -12 -25 -16 -25 -6 -25 -6 -5 -24 20 -17 20 -18 -11 -24 -17 -3 -45 -6
-61 -6 -17 0 -27 -4 -23 -10 3 -5 32 -10 63 -10 l57 0 0 -226 c0 -212 -1 -226
-19 -240 -11 -8 -22 -10 -25 -6 -3 5 -24 12 -46 15 -22 4 -45 14 -52 23 -13
18 -20 16 -83 -35 -45 -36 -79 -44 -144 -34 l-29 5 6 67 c8 95 47 338 69 426
21 89 22 90 58 96 59 11 270 10 270 -1z m-7305 -36 l-40 -14 50 5 c28 3 75 7
105 10 49 4 51 3 15 -4 -145 -31 -599 -159 -819 -232 -49 -16 -91 -27 -94 -24
-4 3 4 8 16 12 12 3 22 10 22 15 0 19 -127 -32 -330 -132 -85 -42 -172 -83
-193 -89 -20 -7 -35 -17 -32 -22 4 -5 1 -9 -5 -9 -6 0 -29 -9 -50 -19 -71 -34
-42 -6 68 66 108 71 278 167 342 193 19 7 37 17 40 20 9 11 473 159 560 179
255 59 309 68 355 62 l30 -4 -40 -13z m6700 -4 c-3 -5 -12 -7 -20 -3 -21 7
-19 13 6 13 11 0 18 -4 14 -10z m262 4 c-3 -3 -12 -4 -19 -1 -8 3 -5 6 6 6 11
1 17 -2 13 -5z m-5504 -11 c-7 -2 -21 -2 -30 0 -10 3 -4 5 12 5 17 0 24 -2 18
-5z m4737 -18 c0 -8 -9 -15 -20 -15 -11 0 -20 7 -20 15 0 8 9 15 20 15 11 0
20 -7 20 -15z m260 -20 c0 -14 -4 -25 -10 -25 -5 0 -10 11 -10 25 0 14 5 25
10 25 6 0 10 -11 10 -25z m-5360 5 c0 -5 -9 -10 -21 -10 -11 0 -17 5 -14 10 3
6 13 10 21 10 8 0 14 -4 14 -10z m5203 -24 c4 -10 0 -12 -15 -8 -15 4 -17 7
-6 13 17 11 15 11 21 -5z m5267 -46 c6 -11 8 -20 6 -20 -3 0 -10 9 -16 20 -6
11 -8 20 -6 20 3 0 10 -9 16 -20z m-70 -6 c0 -8 -4 -12 -10 -9 -5 3 -10 10
-10 16 0 5 5 9 10 9 6 0 10 -7 10 -16z m55 -34 c3 -5 2 -10 -4 -10 -5 0 -13 5
-16 10 -3 6 -2 10 4 10 5 0 13 -4 16 -10z m-5975 -20 c0 -23 -10 -26 -28 -8
-18 18 -15 28 8 28 13 0 20 -7 20 -20z m5930 -36 c0 -24 -26 -16 -39 12 -16
36 -2 53 21 25 10 -13 18 -29 18 -37z m-5575 15 c-11 -17 -35 -9 -35 11 0 18
3 19 20 10 11 -6 18 -15 15 -21z m-395 -31 c0 -4 -8 -8 -17 -8 -17 0 -46 44
-36 54 6 6 53 -35 53 -46z m6072 25 c15 -19 97 -151 118 -193 27 -51 -19 1
-72 81 -28 44 -55 79 -61 79 -5 0 -4 7 4 16 11 13 10 15 -6 12 -10 -1 -20 3
-22 10 -7 18 22 15 39 -5z m-49 -80 c4 -3 3 -11 -3 -17 -5 -7 -10 -41 -12 -76
l-3 -65 -55 1 c-92 0 -143 13 -180 44 -33 27 -34 30 -18 46 19 19 80 24 112 9
16 -7 18 -5 13 8 -4 12 5 19 41 31 40 13 66 19 93 25 3 0 9 -2 12 -6z m-1257
-18 c-11 -8 -27 -15 -35 -15 -13 1 -12 4 3 15 11 8 27 15 35 15 13 -1 12 -4
-3 -15z m-3926 -5 c0 -5 -4 -10 -10 -10 -5 0 -10 5 -10 10 0 6 5 10 10 10 6 0
10 -4 10 -10z m137 -27 c-16 -16 -18 -16 -34 0 -16 16 -15 17 17 17 32 0 33
-1 17 -17z m4588 -33 c11 -5 39 -14 63 -21 23 -7 42 -16 42 -21 0 -4 8 -8 17
-8 9 0 57 -20 107 -44 148 -71 171 -74 189 -23 8 20 34 17 29 -3 -2 -9 20 -11
92 -8 105 4 103 6 120 -72 3 -14 16 -37 30 -51 17 -18 23 -34 19 -48 -4 -15
-1 -21 11 -21 11 0 16 -9 17 -27 l1 -28 7 25 7 25 8 -24 c5 -13 9 -44 11 -70
1 -25 10 -67 19 -92 9 -26 16 -57 16 -70 0 -51 13 -114 26 -127 8 -7 14 -20
14 -29 0 -12 -8 -14 -34 -10 -24 4 -43 -1 -67 -15 -41 -25 -23 -36 23 -14 41
21 64 13 72 -24 3 -20 12 -30 23 -30 17 -1 17 -1 1 -14 -15 -11 -18 -30 -18
-117 0 -113 -24 -344 -41 -397 -6 -18 -22 -38 -37 -46 -47 -24 -182 -63 -362
-106 -193 -47 -326 -81 -440 -112 -121 -33 -126 -33 -144 -6 -9 13 -20 46 -26
74 -23 116 -61 272 -74 304 -37 93 -76 198 -76 208 0 18 -22 26 -31 11 -4 -7
-11 -10 -15 -6 -4 3 -1 13 6 22 18 22 -7 103 -35 111 -34 11 -64 38 -65 57 0
14 -5 17 -20 12 -16 -5 -20 -2 -20 18 0 27 -22 51 -35 39 -5 -4 -5 1 -2 11 4
10 7 25 7 33 0 10 5 9 20 -6 11 -11 20 -24 20 -30 0 -5 4 -10 9 -10 5 0 13
-10 17 -22 l7 -23 10 22 c7 17 5 26 -11 43 -11 12 -26 36 -33 54 -7 17 -19 35
-26 39 -7 4 -13 14 -13 21 0 8 -7 16 -15 20 -8 3 -15 12 -15 21 0 8 -6 15 -12
15 -7 1 3 9 22 20 l35 19 -42 1 c-31 0 -43 4 -43 15 0 8 -4 15 -8 15 -4 0 -34
25 -66 55 -32 31 -76 65 -98 76 -23 12 -49 28 -59 38 -27 25 -282 150 -311
152 -7 0 1 5 17 10 19 5 31 5 33 -1 2 -6 13 -10 25 -9 12 0 16 3 9 6 -6 2 -10
9 -6 14 6 11 44 12 44 2 0 -5 36 -9 80 -9 79 -2 81 -3 135 -45 30 -24 70 -54
88 -66 17 -12 40 -29 50 -37 9 -9 23 -16 31 -16 8 0 16 -6 19 -13 3 -7 23 -19
45 -25 49 -15 146 -16 137 -2 -3 6 -25 10 -48 10 -50 0 -145 46 -181 87 -46
52 -37 59 91 66 41 2 80 10 89 18 10 8 20 14 23 14 3 0 5 6 4 15 -2 9 0 10 3
3 9 -20 22 -15 26 7 2 12 7 22 12 23 16 4 49 -52 49 -83 0 -31 17 -40 34 -17
19 23 23 66 11 119 -17 73 -17 72 22 74 19 1 36 7 38 13 2 6 15 11 28 11 16 0
24 6 24 18 1 16 1 16 11 0 5 -10 21 -18 34 -18 17 0 25 6 25 18 0 14 2 15 10
2 7 -12 15 -10 45 12 38 27 53 27 120 -2z m-12320 0 c-3 -5 -12 -10 -18 -10
-7 0 -6 4 3 10 19 12 23 12 15 0z m7995 -20 c0 -5 -5 -10 -11 -10 -5 0 -7 5
-4 10 3 6 8 10 11 10 2 0 4 -4 4 -10z m-8073 -30 c-26 -16 -50 -30 -52 -30 -3
0 -31 -18 -62 -40 -65 -45 -90 -53 -45 -15 17 14 33 25 36 25 3 0 25 14 48 30
22 17 47 30 53 30 7 0 18 7 25 15 7 8 20 15 28 15 9 0 -5 -13 -31 -30z m9220
9 c-14 -8 -22 -8 -30 0 -8 8 -3 11 19 11 25 -1 27 -2 11 -11z m-77 -34 c0 -8
-7 -15 -15 -15 -8 0 -15 7 -15 15 0 8 7 15 15 15 8 0 15 -7 15 -15z m3920 -44
c-1 -13 -30 34 -30 48 0 9 7 3 15 -13 8 -15 15 -31 15 -35z m-3615 19 c3 -5 1
-10 -4 -10 -6 0 -11 5 -11 10 0 6 2 10 4 10 3 0 8 -4 11 -10z m3648 -76 c5
-30 -8 -20 -18 15 -4 15 -3 21 3 17 5 -3 12 -17 15 -32z m-13203 12 c0 -3 -4
-8 -10 -11 -5 -3 -10 -1 -10 4 0 6 5 11 10 11 6 0 10 -2 10 -4z m10394 -25 c3
-5 -1 -11 -9 -15 -15 -6 -29 7 -18 18 9 9 21 8 27 -3z m-13046 -28 c-21 -2
-57 -2 -80 0 -24 2 -7 4 37 4 44 0 63 -2 43 -4z m2477 -3 c3 -5 -16 -28 -42
-52 -26 -24 -64 -60 -84 -82 -36 -38 -64 -42 -52 -8 10 27 65 82 111 109 23
14 42 29 42 34 0 12 17 12 25 -1z m13403 -21 c-3 -8 -7 -3 -11 10 -4 17 -3 21
5 13 5 -5 8 -16 6 -23z m-16008 -27 c0 -10 -156 -9 -166 1 -4 4 32 7 79 7 48
0 87 -4 87 -8z m725 -2 c3 -6 -1 -7 -9 -4 -18 7 -21 14 -7 14 6 0 13 -4 16
-10z m15302 -22 c-3 -8 -6 -5 -6 6 -1 11 2 17 5 13 3 -3 4 -12 1 -19z m-9411
-215 l49 -7 -40 -7 c-90 -17 -191 -8 -168 15 8 8 98 8 159 -1z m-4256 -95 c5
-16 5 -28 1 -28 -13 0 -31 49 -24 67 5 13 7 14 11 2 2 -7 7 -26 12 -41z m4230
12 c5 -8 8 -15 7 -16 -7 -6 -122 17 -131 26 -8 9 4 11 52 8 40 -3 67 -10 72
-18z m180 -40 c0 -5 -2 -10 -4 -10 -3 0 -8 5 -11 10 -3 6 -1 10 4 10 6 0 11
-4 11 -10z m6957 -30 c45 -6 98 -17 120 -25 31 -12 32 -14 8 -9 -179 35 -294
39 -425 17 -19 -3 -32 -3 -29 1 20 21 208 31 326 16z m-8872 -39 c87 -25 169
-60 138 -61 -12 0 -43 9 -69 20 -107 46 -298 60 -489 35 -38 -5 -38 -4 -10 5
99 34 311 34 430 1z m9069 -10 c4 -5 -3 -7 -14 -4 -23 6 -26 13 -6 13 8 0 17
-4 20 -9z m-9544 -6 c0 -6 -90 -45 -104 -45 -6 0 12 11 39 24 51 25 65 29 65
21z m9298 -1 c29 -3 50 -10 47 -15 -4 -5 4 -9 17 -10 15 0 18 -3 8 -6 -24 -10
-70 -60 -70 -78 0 -9 -6 -28 -14 -43 -19 -37 -15 -66 12 -88 20 -17 22 -22 12
-51 -7 -18 -21 -35 -33 -39 -12 -3 -38 -13 -57 -21 -127 -56 -129 -57 -110
-93 7 -13 6 -21 -5 -30 -8 -7 -21 -24 -28 -39 -23 -44 -41 -75 -68 -111 -64
-88 -87 -213 -53 -286 16 -33 16 -35 -7 -53 -22 -18 -25 -18 -36 -4 -18 23
-26 95 -21 178 4 57 13 90 43 153 35 75 36 82 21 97 -9 9 -16 23 -16 30 0 18
117 114 148 122 14 3 21 11 18 19 -3 8 1 14 9 14 29 0 55 33 55 72 0 35 16 62
42 70 9 3 12 34 13 100 0 53 -3 91 -7 85 -6 -9 -8 -9 -8 1 0 6 -12 12 -26 12
-14 0 -23 4 -20 9 7 10 57 12 134 5z m-9014 -30 c28 -2 68 -9 88 -15 36 -11
41 -23 28 -59 -2 -3 -2 -9 -1 -13 2 -12 -21 -79 -32 -94 -6 -8 -5 -18 2 -27 7
-9 8 -17 2 -20 -5 -3 -7 -14 -4 -25 2 -10 -5 -36 -16 -57 -12 -21 -21 -35 -21
-31 0 5 -16 -1 -35 -13 -19 -12 -35 -18 -35 -14 0 4 -5 3 -12 -4 -7 -7 -19
-12 -28 -12 -9 0 -36 -14 -61 -31 -44 -32 -44 -32 9 18 29 27 50 52 46 56 -9
8 -13 45 -19 162 -6 122 -8 134 -24 144 -11 7 -9 10 8 16 12 3 19 10 16 15 -6
10 16 19 29 12 5 -3 32 -7 60 -8z m-404 -24 c0 -5 -6 -10 -14 -10 -8 0 -23 -3
-33 -6 -10 -3 -7 2 7 10 30 18 40 20 40 6z m2454 -43 l39 -22 -74 -6 c-41 -3
-64 -6 -51 -7 43 -4 11 -22 -38 -22 -60 0 -80 7 -73 26 4 10 -3 14 -21 14 -14
0 -26 5 -26 10 0 6 -1 13 -2 18 -4 11 81 20 147 15 35 -3 76 -14 99 -26z
m-2473 -10 c-10 -9 -11 -8 -5 6 3 10 9 15 12 12 3 -3 0 -11 -7 -18z m9709 -4
c20 5 60 -18 60 -33 0 -5 -14 -17 -30 -25 -17 -9 -36 -27 -42 -40 -11 -26 -32
-33 -43 -15 -3 5 -1 27 4 47 6 21 13 52 17 68 5 22 8 25 12 12 2 -13 10 -17
22 -14z m-820 -38 c0 -10 -81 -58 -87 -51 -10 9 48 55 70 56 9 0 17 -2 17 -5z
m915 -16 c4 -6 -1 -17 -11 -24 -28 -21 -34 -18 -21 10 13 27 22 31 32 14z
m-9956 -86 c-8 -9 -29 -33 -47 -52 -17 -20 -35 -45 -38 -56 -4 -11 -14 -25
-22 -31 -28 -20 -62 -291 -44 -352 6 -20 16 -71 22 -112 6 -41 13 -90 16 -107
3 -21 11 -33 21 -33 12 0 13 -3 4 -14 -14 -17 15 -140 48 -205 25 -49 148
-201 162 -201 5 0 18 -8 28 -17 36 -32 46 -38 116 -62 119 -42 339 -40 438 2
18 8 57 20 87 27 64 15 150 50 150 62 0 4 5 8 11 8 33 0 259 267 241 285 -4 3
1 11 10 16 9 5 29 32 44 59 26 48 45 64 43 38 -1 -44 -29 -159 -45 -190 -10
-20 -30 -58 -43 -84 -55 -106 -245 -259 -371 -297 -238 -71 -526 -35 -706 89
-146 101 -264 265 -300 417 -10 42 -25 32 -18 -13 4 -22 4 -40 1 -40 -10 0
-50 85 -69 145 -10 33 -21 92 -24 130 -4 61 -1 81 26 155 17 47 38 108 46 135
9 28 22 63 30 78 8 16 14 34 14 41 0 7 11 23 25 36 14 13 25 28 25 34 1 14 73
91 94 99 9 4 16 11 16 17 0 5 5 10 11 10 8 0 7 -6 -2 -17z m1199 -84 c11 -15
9 -17 -12 -15 -20 1 -22 4 -14 19 5 10 11 17 12 15 1 -1 7 -10 14 -19z m8559
-26 c-3 -10 -5 -4 -5 12 0 17 2 24 5 18 2 -7 2 -21 0 -30z m-907 19 c0 -4 -7
-18 -16 -30 -8 -12 -13 -30 -9 -40 3 -11 -3 -36 -12 -58 -25 -55 -25 -462 1
-573 25 -112 77 -214 139 -272 33 -31 32 -6 -2 42 -31 42 -39 69 -21 69 5 0
16 -12 24 -27 22 -43 93 -119 134 -144 20 -13 39 -26 42 -29 10 -11 135 -70
151 -70 8 0 20 -5 25 -10 6 -6 55 -16 110 -23 110 -14 178 -7 206 23 17 18 15
50 -3 50 -13 0 -61 103 -56 121 3 10 -4 26 -14 35 -10 9 -19 22 -19 27 0 13
-72 77 -86 77 -6 0 -32 16 -57 35 -25 19 -50 35 -55 35 -5 0 -23 7 -38 15 -27
14 -27 15 -6 15 28 0 29 27 2 80 -21 42 -26 95 -10 120 8 13 11 13 23 0 8 -8
22 -37 32 -63 9 -27 23 -51 31 -54 8 -3 14 -11 14 -18 0 -23 39 -48 75 -47 19
1 35 -3 35 -8 0 -6 6 -10 14 -10 14 0 76 29 86 41 3 3 19 11 36 18 63 25 114
104 114 175 0 19 5 38 11 41 6 4 14 17 19 29 6 13 7 -2 4 -43 -5 -63 -26 -116
-61 -156 -21 -25 -127 -105 -137 -105 -5 0 -21 -9 -36 -20 -24 -17 -29 -18
-34 -5 -8 22 -26 18 -26 -5 0 -17 7 -20 41 -20 35 0 40 -2 34 -19 -4 -14 2
-24 25 -37 16 -10 30 -26 30 -36 0 -10 5 -18 10 -18 6 0 10 13 10 28 0 16 3
32 7 35 10 11 53 -34 53 -56 0 -11 7 -29 16 -38 9 -10 18 -30 20 -45 1 -15 7
-31 13 -37 6 -6 11 -24 11 -40 0 -56 60 -68 122 -26 14 11 30 19 36 19 5 0 59
48 119 108 168 164 207 237 237 452 17 119 37 166 50 115 4 -14 4 -30 1 -35
-3 -5 0 -30 6 -55 14 -56 0 -183 -30 -273 -75 -223 -306 -418 -576 -487 -97
-25 -267 -26 -365 -2 -118 30 -358 150 -408 206 -13 14 -44 49 -69 76 -63 68
-129 209 -152 321 l-18 89 -4 -50 -4 -50 -14 30 c-8 17 -16 76 -19 137 -7 170
32 297 129 421 42 52 59 67 59 49z m-7840 -176 c0 -3 -4 -8 -10 -11 -5 -3 -10
-1 -10 4 0 6 5 11 10 11 6 0 10 -2 10 -4z m-30 -98 c0 -16 -3 -19 -11 -11 -6
6 -8 16 -5 22 11 17 16 13 16 -11z m-397 -33 c46 -7 87 -25 87 -37 0 -4 -22
-8 -50 -8 -59 0 -66 -14 -12 -26 l37 -8 -35 -6 c-19 -3 -43 -2 -53 2 -12 6
-19 4 -23 -7 -7 -18 -52 -19 -76 -1 -14 10 -15 15 -5 26 10 10 7 11 -15 6 -31
-7 -35 1 -14 29 16 22 73 44 101 40 11 -2 37 -7 58 -10z m8989 -15 c20 -22 21
-23 3 -15 -38 18 -113 12 -135 -11 l-20 -20 34 4 c31 4 34 2 29 -18 -4 -14
-11 -19 -21 -15 -8 3 -20 1 -26 -4 -17 -14 -86 -9 -86 7 0 7 20 33 45 58 44
46 45 46 100 42 42 -4 61 -11 77 -28z m-9182 7 c0 -7 -12 -30 -27 -52 -14 -21
-34 -60 -44 -85 -14 -33 -18 -39 -18 -20 1 31 16 72 49 127 25 43 40 54 40 30z
m9470 -105 c-1 -73 -34 -100 -46 -37 -5 27 -2 41 11 55 22 24 35 17 35 -18z
m-305 -37 c0 -5 -10 -11 -22 -13 -16 -2 -23 2 -23 13 0 11 7 15 23 13 12 -2
22 -7 22 -13z m-8910 -43 c-3 -3 -11 0 -18 7 -9 10 -8 11 6 5 10 -3 15 -9 12
-12z m11231 -48 c-4 -13 -11 -24 -16 -24 -14 0 -12 36 3 60 10 17 13 18 15 5
2 -9 1 -27 -2 -41z m-13537 -6 c23 -9 24 -11 8 -17 -17 -6 -17 -8 -3 -20 26
-22 18 -34 -8 -14 -29 21 -49 60 -39 76 5 8 8 7 11 -2 2 -7 16 -17 31 -23z
m404 -44 c26 -3 50 -11 54 -17 9 -14 -99 -1 -140 18 l-32 15 35 -4 c19 -3 56
-8 83 -12z m1947 -40 c0 -27 -72 -73 -153 -98 -24 -8 -16 -30 12 -34 25 -4 40
-30 22 -41 -7 -5 -2 -12 16 -20 16 -7 35 -17 43 -21 18 -8 35 -43 45 -87 10
-48 -12 -41 -26 8 -11 34 -52 79 -73 79 -4 0 -23 11 -44 23 -20 13 -42 22 -47
20 -6 -2 -24 10 -40 27 -30 31 -51 38 -57 19 -4 -12 -58 9 -58 23 0 4 -7 8
-15 8 -8 0 -15 2 -15 5 0 6 30 67 36 74 5 6 43 -42 44 -55 0 -19 52 -23 77 -7
20 14 23 14 29 -1 3 -9 14 -16 23 -16 27 0 134 57 151 80 14 19 30 27 30 14z
m103 -24 c-6 -21 -21 -35 -29 -27 -4 4 25 47 32 47 1 0 0 -9 -3 -20z m557 -4
c0 -14 -4 -28 -10 -31 -5 -3 -10 -22 -10 -41 0 -22 -6 -37 -15 -41 -27 -10
-28 4 -6 52 11 24 21 54 21 65 0 11 5 20 10 20 6 0 10 -11 10 -24z m-1072 -28
c-3 -7 -11 -13 -18 -13 -7 0 -15 6 -17 13 -3 7 4 12 17 12 13 0 20 -5 18 -12z
m5195 -5 c-24 -2 -62 -2 -85 0 -24 2 -5 4 42 4 47 0 66 -2 43 -4z m-1913 -17
c19 -1 -83 -3 -227 -4 -144 -1 -264 1 -266 6 -5 6 412 5 493 -2z m1033 7
c-112 -2 -294 -2 -405 0 -112 1 -21 2 202 2 223 0 314 -1 203 -2z m4537 -57
c0 -2 -7 -7 -16 -10 -8 -3 -12 -2 -9 4 6 10 25 14 25 6z m-7820 -36 c0 -5 -4
-10 -10 -10 -5 0 -10 5 -10 10 0 6 5 10 10 10 6 0 10 -4 10 -10z m-27 -50 c-8
-30 -21 -34 -15 -5 2 14 8 25 12 25 5 0 6 -9 3 -20z m-577 -198 c-9 -8 -14 0
-21 33 l-6 30 16 -28 c9 -16 14 -31 11 -35z m11094 -252 c0 -5 -4 -10 -10 -10
-5 0 -10 5 -10 10 0 6 5 10 10 10 6 0 10 -4 10 -10z m-7641 -9 c8 -5 -5 -7
-35 -4 -27 3 -51 7 -53 9 -9 8 75 3 88 -5z m1228 3 c-3 -3 -12 -4 -19 -1 -8 3
-5 6 6 6 11 1 17 -2 13 -5z m366 -1 c-7 -2 -19 -2 -25 0 -7 3 -2 5 12 5 14 0
19 -2 13 -5z m310 0 c-7 -2 -21 -2 -30 0 -10 3 -4 5 12 5 17 0 24 -2 18 -5z
m65 0 c-10 -2 -26 -2 -35 0 -10 3 -2 5 17 5 19 0 27 -2 18 -5z m385 0 c-68 -2
-178 -2 -245 0 -68 1 -13 3 122 3 135 0 190 -2 123 -3z m320 0 c-24 -2 -62 -2
-85 0 -24 2 -5 4 42 4 47 0 66 -2 43 -4z m195 0 c-16 -2 -40 -2 -55 0 -16 2
-3 4 27 4 30 0 43 -2 28 -4z m470 0 c-10 -2 -28 -2 -40 0 -13 2 -5 4 17 4 22
1 32 -1 23 -4z m969 1 c-3 -3 -12 -4 -19 -1 -8 3 -5 6 6 6 11 1 17 -2 13 -5z
m846 -1 c-68 -2 -178 -2 -245 0 -68 1 -13 3 122 3 135 0 190 -2 123 -3z m260
0 c-13 -2 -33 -2 -45 0 -13 2 -3 4 22 4 25 0 35 -2 23 -4z m-8020 -10 c-7 -2
-21 -2 -30 0 -10 3 -4 5 12 5 17 0 24 -2 18 -5z m517 -3 c0 -5 -7 -7 -15 -4
-8 4 -15 8 -15 10 0 2 7 4 15 4 8 0 15 -4 15 -10z m2223 -17 c-13 -2 -33 -2
-45 0 -13 2 -3 4 22 4 25 0 35 -2 23 -4z m364 1 c-3 -3 -12 -4 -19 -1 -8 3 -5
6 6 6 11 1 17 -2 13 -5z m2836 -1 c-13 -2 -33 -2 -45 0 -13 2 -3 4 22 4 25 0
35 -2 23 -4z m320 0 c-13 -2 -33 -2 -45 0 -13 2 -3 4 22 4 25 0 35 -2 23 -4z
m1195 0 c-10 -2 -28 -2 -40 0 -13 2 -5 4 17 4 22 1 32 -1 23 -4z m130 0 c-21
-2 -55 -2 -75 0 -21 2 -4 4 37 4 41 0 58 -2 38 -4z m295 0 c-46 -2 -120 -2
-165 0 -46 1 -9 3 82 3 91 0 128 -2 83 -3z m3537 -3 c0 -5 -4 -10 -10 -10 -5
0 -10 5 -10 10 0 6 5 10 10 10 6 0 10 -4 10 -10z m-10870 -10 c-24 -7 -23 -7
10 -12 23 -3 15 -5 -25 -5 -33 0 -50 2 -37 4 12 2 22 9 22 14 0 5 12 9 28 8
l27 -1 -25 -8z m273 3 c-13 -2 -33 -2 -45 0 -13 2 -3 4 22 4 25 0 35 -2 23 -4z
m1787 -3 c-8 -5 -33 -9 -55 -8 l-40 1 45 7 c25 4 50 8 55 8 6 1 3 -3 -5 -8z
m8590 0 c0 -5 -4 -10 -10 -10 -5 0 -10 5 -10 10 0 6 5 10 10 10 6 0 10 -4 10
-10z m105 0 c15 -6 8 -9 -27 -9 -27 -1 -48 4 -48 9 0 12 47 12 75 0z m-4162
-7 c-13 -2 -33 -2 -45 0 -13 2 -3 4 22 4 25 0 35 -2 23 -4z m-4490 -10 c-7 -2
-21 -2 -30 0 -10 3 -4 5 12 5 17 0 24 -2 18 -5z m8960 0 c-7 -2 -19 -2 -25 0
-7 3 -2 5 12 5 14 0 19 -2 13 -5z m-4730 -10 c-7 -2 -21 -2 -30 0 -10 3 -4 5
12 5 17 0 24 -2 18 -5z m-2923 -22 c0 -5 -9 -7 -20 -4 -11 3 -20 7 -20 9 0 2
9 4 20 4 11 0 20 -4 20 -9z m-6160 -11 c0 -5 -4 -10 -9 -10 -6 0 -13 5 -16 10
-3 6 1 10 9 10 9 0 16 -4 16 -10z m5680 -50 c0 -5 -6 -10 -14 -10 -8 0 -18 5
-21 10 -3 6 3 10 14 10 12 0 21 -4 21 -10z m90 0 c-20 -13 -40 -13 -40 0 0 6
12 10 28 10 21 0 24 -2 12 -10z m-570 -35 c0 -11 -11 -15 -40 -15 -29 0 -40 4
-40 15 0 11 11 15 40 15 29 0 40 -4 40 -15z m301 -38 c15 -3 8 -5 -18 -6 -41
-1 -43 1 -43 27 l1 27 18 -22 c10 -11 29 -23 42 -26z m454 13 c4 -6 -9 -10
-32 -10 -28 0 -34 3 -23 10 20 13 47 13 55 0z m1420 0 c3 -5 1 -10 -4 -10 -6
0 -11 5 -11 10 0 6 2 10 4 10 3 0 8 -4 11 -10z m615 -1 c8 -2 -61 -6 -155 -9
-195 -6 -417 -2 -411 8 4 7 536 8 566 1z m75 1 c4 -6 -7 -10 -25 -10 -18 0
-29 4 -25 10 3 6 15 10 25 10 10 0 22 -4 25 -10z m324 0 c52 0 92 -2 89 -5 -8
-8 -326 -13 -368 -7 l-35 6 30 8 c17 4 66 5 110 3 44 -3 122 -5 174 -5z
m-2309 -4 c0 -2 -18 -6 -40 -8 -22 -2 -40 0 -40 4 0 5 18 8 40 8 22 0 40 -2
40 -4z m170 -6 c-8 -5 -22 -9 -30 -9 -10 0 -8 3 5 9 27 12 43 12 25 0z m737 4
c-3 -3 -12 -4 -19 -1 -8 3 -5 6 6 6 11 1 17 -2 13 -5z m-6477 -14 c-20 -13
-110 -13 -110 0 0 6 27 10 63 10 44 0 58 -3 47 -10z m923 3 c-7 -2 -21 -2 -30
0 -10 3 -4 5 12 5 17 0 24 -2 18 -5z m100 0 c-7 -2 -19 -2 -25 0 -7 3 -2 5 12
5 14 0 19 -2 13 -5z m270 0 c-7 -2 -19 -2 -25 0 -7 3 -2 5 12 5 14 0 19 -2 13
-5z m4375 0 c-10 -2 -26 -2 -35 0 -10 3 -2 5 17 5 19 0 27 -2 18 -5z m-3722
-49 c15 -4 24 -2 24 5 0 6 17 11 40 11 22 0 40 -4 40 -10 0 -6 9 -6 26 0 14 6
35 8 47 5 12 -2 83 -7 157 -11 143 -6 171 -7 370 -14 69 -2 105 -5 80 -7 -63
-5 -76 -11 -61 -26 9 -9 14 -9 20 2 7 10 25 11 87 5 l79 -9 -95 -5 c-52 -4
-167 -4 -255 -2 -88 2 -169 3 -180 2 -50 -5 -292 3 -305 10 -8 4 -58 9 -110
12 -52 3 -78 3 -57 1 20 -2 37 -8 37 -13 0 -5 17 -11 38 -13 20 -2 3 -3 -38
-3 -41 1 -77 4 -80 7 -3 4 -36 10 -75 13 -64 7 -68 6 -50 -8 19 -15 19 -15 -7
-16 -18 0 -28 5 -28 14 0 16 -83 27 -103 14 -8 -5 -6 -8 6 -8 9 0 17 -4 17
-10 0 -5 -19 -10 -42 -10 -42 1 -43 1 -18 15 28 16 20 19 -52 15 -39 -1 -48 1
-48 15 0 12 5 15 18 10 39 -17 62 -17 62 -2 0 13 26 15 200 12 134 -3 200 0
200 7 0 5 7 7 16 4 9 -3 27 -9 40 -12z m-546 -15 c0 -5 -7 -9 -15 -9 -15 0
-20 12 -9 23 8 8 24 -1 24 -14z m1440 11 c0 -5 -13 -10 -30 -10 -16 0 -30 5
-30 10 0 6 14 10 30 10 17 0 30 -4 30 -10z m-1964 -16 c30 12 368 8 372 -4 2
-5 21 -10 43 -10 21 0 39 -4 39 -9 0 -6 19 -11 43 -13 23 -2 5 -4 -40 -4 -61
0 -83 4 -83 13 0 10 -29 13 -120 13 -151 0 -161 -18 -12 -23 59 -2 -3 -2 -137
-1 -134 2 -246 5 -248 8 -3 2 5 9 16 16 14 7 21 7 21 0 0 -5 18 -10 40 -10 41
0 58 19 18 21 -22 0 -22 1 -3 8 12 5 23 4 26 -2 4 -5 15 -7 25 -3z m464 6 c0
-5 -16 -10 -36 -10 -21 0 -33 4 -29 10 3 6 19 10 36 10 16 0 29 -4 29 -10z
m1573 -7 c-13 -2 -33 -2 -45 0 -13 2 -3 4 22 4 25 0 35 -2 23 -4z m886 -3 c24
-13 249 -20 253 -8 2 5 23 3 48 -6 53 -18 340 -19 352 -2 5 7 11 7 19 -1 9 -9
4 -13 -22 -17 -48 -8 -1346 -2 -1354 6 -14 14 69 20 149 12 44 -4 104 -7 131
-7 28 1 135 3 239 4 107 1 179 6 167 10 -11 5 -21 11 -21 14 0 8 20 6 39 -5z
m971 0 c0 -7 -14 -8 -37 -4 -52 9 -54 14 -5 14 23 0 42 -5 42 -10z m303 3
c-13 -2 -33 -2 -45 0 -13 2 -3 4 22 4 25 0 35 -2 23 -4z m-5393 -13 c0 -6 58
-10 155 -10 97 0 155 4 155 10 0 6 7 10 15 10 21 0 19 -17 -4 -30 -22 -11
-233 -14 -330 -4 -41 5 -61 11 -61 20 0 9 12 14 35 14 19 0 35 -4 35 -10z
m-110 -15 c0 -16 -17 -19 -46 -8 -16 6 -16 7 2 14 30 12 44 10 44 -6z m825 6
c17 -1 18 -3 5 -11 -19 -12 -370 -13 -370 -1 0 5 5 11 11 13 9 3 304 2 354 -1z
m269 -12 c-3 -5 -10 -7 -15 -3 -5 3 -7 10 -3 15 3 5 10 7 15 3 5 -3 7 -10 3
-15z m2244 12 c11 -7 11 -9 -2 -14 -9 -4 -23 -4 -32 0 -13 5 -13 7 -2 14 7 5
15 9 18 9 3 0 11 -4 18 -9z m1790 -6 c104 -4 152 -3 152 5 0 6 15 8 43 4 97
-16 66 -20 -140 -19 -256 2 -256 2 -248 15 4 6 14 9 23 6 10 -3 86 -8 170 -11z
m-4138 -5 c0 -5 -7 -10 -15 -10 -8 0 -15 5 -15 10 0 6 7 10 15 10 8 0 15 -4
15 -10z m2450 0 c0 -5 -18 -10 -40 -10 -22 0 -40 5 -40 10 0 6 18 10 40 10 22
0 40 -4 40 -10z m-2400 -820 c0 -5 -18 -10 -40 -10 -22 0 -40 5 -40 10 0 6 18
10 40 10 22 0 40 -4 40 -10z m788 -99 c14 -9 13 -10 -9 -11 -18 0 -28 6 -32
19 -6 25 4 36 15 17 5 -9 16 -20 26 -25z m272 29 c0 -5 -4 -10 -10 -10 -5 0
-10 5 -10 10 0 6 5 10 10 10 6 0 10 -4 10 -10z m60 0 c0 -5 -4 -10 -10 -10 -5
0 -10 5 -10 10 0 6 5 10 10 10 6 0 10 -4 10 -10z m-1520 -15 c0 -16 -9 -19
-36 -8 -16 6 -16 7 2 14 29 11 34 10 34 -6z m53 -5 c3 -13 0 -20 -9 -20 -8 0
-14 9 -14 20 0 11 4 20 9 20 5 0 11 -9 14 -20z m-158 -10 c3 -5 -3 -10 -15
-10 -12 0 -18 5 -15 10 3 6 10 10 15 10 5 0 12 -4 15 -10z m1222 -16 c-3 -3
-12 -4 -19 -1 -8 3 -5 6 6 6 11 1 17 -2 13 -5z m5340 0 c-3 -3 -12 -4 -19 -1
-8 3 -5 6 6 6 11 1 17 -2 13 -5z m243 -4 c0 -5 -7 -10 -15 -10 -8 0 -15 5 -15
10 0 6 7 10 15 10 8 0 15 -4 15 -10z m187 -12 c-3 -8 -6 -5 -6 6 -1 11 2 17 5
13 3 -3 4 -12 1 -19z m-552 -18 c3 -5 1 -10 -4 -10 -6 0 -11 5 -11 10 0 6 2
10 4 10 3 0 8 -4 11 -10z m325 1 c0 -6 -4 -13 -10 -16 -5 -3 -10 1 -10 9 0 9
5 16 10 16 6 0 10 -4 10 -9z m101 -21 c21 0 39 -4 39 -10 0 -16 47 -12 54 5 8
22 26 18 26 -6 0 -21 -3 -22 -61 -15 -34 3 -77 6 -96 6 -31 0 -32 1 -21 20 7
11 14 16 16 10 2 -5 21 -10 43 -10z m169 -5 c0 -8 -7 -15 -15 -15 -8 0 -15 7
-15 15 0 8 7 15 15 15 8 0 15 -7 15 -15z m-4015 -5 c3 -5 -3 -10 -14 -10 -12
0 -21 5 -21 10 0 6 6 10 14 10 8 0 18 -4 21 -10z m3005 0 c0 -5 -5 -10 -11
-10 -5 0 -7 5 -4 10 3 6 8 10 11 10 2 0 4 -4 4 -10z m160 0 c0 -5 -12 -10 -27
-9 -25 0 -26 1 -8 9 27 12 35 12 35 0z m320 0 c0 -5 -8 -10 -17 -10 -15 0 -16
2 -3 10 19 12 20 12 20 0z m575 0 c3 -5 1 -10 -4 -10 -6 0 -11 5 -11 10 0 6 2
10 4 10 3 0 8 -4 11 -10z m-3379 -27 c-3 -3 -13 -2 -23 2 -17 7 -17 8 2 15 19
7 34 -5 21 -17z m96 5 c-12 -12 -35 -1 -27 12 3 5 13 6 21 3 10 -4 12 -9 6
-15z m2765 16 c-3 -3 -12 -4 -19 -1 -8 3 -5 6 6 6 11 1 17 -2 13 -5z m136 -5
c22 0 22 0 -1 -10 -18 -7 -28 -5 -40 8 -16 16 -16 16 1 10 10 -4 28 -7 40 -8z
m-3743 -39 c0 -22 -4 -40 -10 -40 -5 0 -10 18 -10 40 0 22 5 40 10 40 6 0 10
-18 10 -40z m210 30 c0 -14 38 -12 43 3 2 7 8 8 13 3 5 -5 4 -11 -3 -13 -7 -3
-13 -13 -13 -23 0 -10 6 -20 13 -23 7 -2 8 -8 3 -13 -5 -5 -11 -4 -13 4 -3 6
-13 12 -24 12 -16 0 -18 -5 -13 -25 5 -19 2 -25 -10 -25 -10 0 -16 9 -16 25 0
14 5 25 10 25 6 0 10 9 10 20 0 11 -4 20 -10 20 -5 0 -10 5 -10 10 0 6 5 10
10 10 6 0 10 -4 10 -10z m380 -5 c0 -8 -12 -17 -27 -21 -16 -3 -34 -7 -40 -10
-26 -7 -12 23 15 33 39 16 52 15 52 -2z m818 8 c-21 -5 -24 -29 -5 -36 6 -2 9
-7 5 -11 -7 -8 -58 32 -58 46 0 4 17 7 38 7 20 -1 29 -3 20 -6z m1499 1 c-3
-3 -12 -4 -19 -1 -8 3 -5 6 6 6 11 1 17 -2 13 -5z m213 -4 c0 -5 -4 -10 -10
-10 -5 0 -10 5 -10 10 0 6 5 10 10 10 6 0 10 -4 10 -10z m530 6 c0 -3 -4 -8
-10 -11 -5 -3 -10 -1 -10 4 0 6 5 11 10 11 6 0 10 -2 10 -4z m-2956 -37 c-8
-14 -24 -10 -24 6 0 9 6 12 15 9 8 -4 12 -10 9 -15z m2536 11 c0 -5 -18 -10
-40 -10 -22 0 -40 5 -40 10 0 6 18 10 40 10 22 0 40 -4 40 -10z m400 -34 c0
-8 3 -16 8 -19 4 -2 1 -2 -6 0 -8 1 -23 3 -35 3 -22 1 -22 1 -3 15 25 19 36
19 36 1z m-2720 -6 c0 -5 -5 -10 -11 -10 -5 0 -7 5 -4 10 3 6 8 10 11 10 2 0
4 -4 4 -10z m2315 -5 c6 -2 -11 -4 -37 -4 -27 -1 -48 3 -48 7 0 7 62 5 85 -3z
m520 5 c16 -7 12 -9 -18 -9 -23 -1 -36 3 -32 9 7 12 23 12 50 0z m-7018 -6
c-3 -3 -12 -4 -19 -1 -8 3 -5 6 6 6 11 1 17 -2 13 -5z m3855 -2 c-10 -7 -8
-18 9 -50 18 -34 20 -44 9 -57 -14 -17 -90 -21 -90 -5 0 6 18 10 40 10 22 0
40 5 40 10 0 6 -4 10 -9 10 -5 0 -12 8 -15 18 -15 38 -31 62 -46 66 -8 2 5 4
30 5 27 0 40 -3 32 -7z m675 2 c-3 -3 -12 -4 -19 -1 -8 3 -5 6 6 6 11 1 17 -2
13 -5z m213 -4 c0 -5 -19 -9 -42 -9 l-43 2 35 7 c19 4 38 8 43 9 4 0 7 -3 7
-9z m2543 3 c-13 -2 -33 -2 -45 0 -13 2 -3 4 22 4 25 0 35 -2 23 -4z m552 -3
c3 -6 -1 -7 -9 -4 -18 7 -21 14 -7 14 6 0 13 -4 16 -10z m-7755 -24 c0 -57
-28 -75 -48 -31 -19 42 -15 55 18 55 25 0 30 -4 30 -24z m40 15 c0 -6 -4 -13
-10 -16 -5 -3 -10 1 -10 9 0 9 5 16 10 16 6 0 10 -4 10 -9z m3070 -11 c-6 -11
-19 -24 -30 -30 -18 -10 -20 -7 -20 20 0 27 3 30 30 30 27 0 30 -2 20 -20z
m530 -19 c0 -22 -5 -41 -12 -44 -10 -3 -12 7 -9 39 4 54 21 58 21 5z m220 29
c0 -5 -2 -10 -4 -10 -3 0 -8 5 -11 10 -3 6 -1 10 4 10 6 0 11 -4 11 -10z
m1027 -1 c-14 -8 -22 -8 -30 0 -8 8 -3 11 19 11 25 -1 27 -2 11 -11z m1823 -4
c0 -13 -4 -14 -20 -5 -11 6 -20 13 -20 15 0 3 9 5 20 5 11 0 20 -7 20 -15z
m598 3 c-3 -7 -11 -13 -18 -13 -7 0 -15 6 -17 13 -3 7 4 12 17 12 13 0 20 -5
18 -12z m-4033 -28 c0 -27 -22 -39 -31 -16 -8 22 3 49 19 43 6 -2 12 -14 12
-27z m1165 0 c0 -5 -4 -10 -10 -10 -5 0 -10 5 -10 10 0 6 5 10 10 10 6 0 10
-4 10 -10z m2320 0 c0 -5 -4 -10 -10 -10 -5 0 -10 5 -10 10 0 6 5 10 10 10 6
0 10 -4 10 -10z m830 0 c0 -5 -4 -10 -10 -10 -5 0 -10 5 -10 10 0 6 5 10 10
10 6 0 10 -4 10 -10z m-4130 -25 c0 -8 -7 -15 -15 -15 -8 0 -15 7 -15 15 0 8
7 15 15 15 8 0 15 -7 15 -15z m880 0 c0 -9 -9 -15 -21 -15 -18 0 -19 2 -9 15
7 8 16 15 21 15 5 0 9 -7 9 -15z m640 -5 c0 -5 -7 -10 -16 -10 -8 0 -12 5 -9
10 3 6 10 10 16 10 5 0 9 -4 9 -10z m2370 0 c0 -5 -4 -10 -10 -10 -5 0 -10 5
-10 10 0 6 5 10 10 10 6 0 10 -4 10 -10z m-2707 -7 c-13 -2 -33 -2 -45 0 -13
2 -3 4 22 4 25 0 35 -2 23 -4z m257 -3 c0 -5 -10 -10 -22 -10 -19 0 -20 2 -8
10 19 13 30 13 30 0z m-5137 -7 c-13 -2 -33 -2 -45 0 -13 2 -3 4 22 4 25 0 35
-2 23 -4z m437 -2 c0 -6 -4 -13 -10 -16 -5 -3 -10 1 -10 9 0 9 5 16 10 16 6 0
10 -4 10 -9z m3660 -1 c0 -6 33 -10 80 -10 52 0 80 -4 80 -11 0 -8 -25 -9 -82
-4 -46 4 -86 9 -90 12 -11 6 -10 23 2 23 6 0 10 -4 10 -10z m400 1 c0 -6 19
-12 43 -14 30 -2 23 -4 -25 -5 -62 -2 -88 8 -55 21 20 9 37 8 37 -2z m1663 2
c-13 -2 -33 -2 -45 0 -13 2 -3 4 22 4 25 0 35 -2 23 -4z m524 1 c-3 -3 -12 -4
-19 -1 -8 3 -5 6 6 6 11 1 17 -2 13 -5z m286 -1 c-7 -2 -21 -2 -30 0 -10 3 -4
5 12 5 17 0 24 -2 18 -5z m-3704 -24 c-21 -13 -49 -11 -49 4 0 9 10 12 31 9
22 -3 27 -7 18 -13z m461 0 c-61 -9 -118 0 -66 10 16 4 50 4 75 2 l46 -5 -55
-7z m634 0 c-8 -14 -24 -10 -24 6 0 9 6 12 15 9 8 -4 12 -10 9 -15z m53 -6
c-3 -3 -11 -2 -17 2 -9 6 -9 10 1 16 14 8 27 -7 16 -18z m323 12 c0 -11 -11
-15 -40 -15 -29 0 -40 4 -40 15 0 11 11 15 40 15 29 0 40 -4 40 -15z m149 6
c22 -14 -50 -25 -96 -16 -36 8 -37 8 -13 15 36 11 93 11 109 1z m-4664 -11 c3
-5 1 -10 -4 -10 -6 0 -11 5 -11 10 0 6 2 10 4 10 3 0 8 -4 11 -10z m4818 3
c-13 -2 -33 -2 -45 0 -13 2 -3 4 22 4 25 0 35 -2 23 -4z m212 -3 c40 -6 43 -7
15 -8 -19 0 -57 3 -85 8 -40 6 -43 7 -15 8 19 0 58 -3 85 -8z m-1492 -147
c-13 -2 -33 -2 -45 0 -13 2 -3 4 22 4 25 0 35 -2 23 -4z m210 0 c-7 -2 -19 -2
-25 0 -7 3 -2 5 12 5 14 0 19 -2 13 -5z m1235 0 c-10 -2 -26 -2 -35 0 -10 3
-2 5 17 5 19 0 27 -2 18 -5z m1815 -30 c-24 -2 -62 -2 -85 0 -24 2 -5 4 42 4
47 0 66 -2 43 -4z m834 1 c-3 -3 -12 -4 -19 -1 -8 3 -5 6 6 6 11 1 17 -2 13
-5z m-3374 -21 c-13 -2 -33 -2 -45 0 -13 2 -3 4 22 4 25 0 35 -2 23 -4z m800
-10 c-13 -2 -33 -2 -45 0 -13 2 -3 4 22 4 25 0 35 -2 23 -4z m230 0 c-7 -2
-19 -2 -25 0 -7 3 -2 5 12 5 14 0 19 -2 13 -5z m80 0 c-7 -2 -19 -2 -25 0 -7
3 -2 5 12 5 14 0 19 -2 13 -5z m330 0 c-13 -2 -33 -2 -45 0 -13 2 -3 4 22 4
25 0 35 -2 23 -4z m927 -37 c0 -2 -7 -9 -15 -16 -12 -10 -15 -10 -15 4 0 9 7
16 15 16 8 0 15 -2 15 -4z m-1390 -136 c0 -6 8 -5 20 2 15 9 25 10 37 2 35
-22 26 -34 -26 -34 -49 0 -68 10 -56 30 8 13 25 13 25 0z m1197 4 c59 -4 83
-10 87 -21 5 -13 -56 -15 -515 -11 -431 4 -522 7 -529 18 -7 12 -12 11 -28 -3
-20 -19 -52 -23 -52 -7 0 6 -18 10 -40 10 -22 0 -40 3 -40 8 0 9 1007 15 1117
6z m640 -7 c-3 -7 -11 -10 -18 -7 -24 8 -134 -1 -137 -10 -5 -15 -80 -12 -85
3 -5 15 -150 13 -155 -3 -5 -13 -82 -13 -82 0 0 6 -8 10 -17 10 -10 0 -23 4
-30 8 -6 4 110 8 258 9 204 1 269 -1 266 -10z m113 9 c0 -2 -7 -6 -15 -10 -8
-3 -15 -1 -15 4 0 6 7 10 15 10 8 0 15 -2 15 -4z m210 -6 c0 -5 -18 -10 -40
-10 -24 0 -40 -5 -40 -12 0 -6 -6 -4 -13 6 -14 20 -54 18 -49 -2 4 -20 -27
-13 -38 8 -10 19 -8 20 85 20 57 0 95 -4 95 -10z m113 3 c-7 -2 -19 -2 -25 0
-7 3 -2 5 12 5 14 0 19 -2 13 -5z m350 -10 c-13 -2 -33 -2 -45 0 -13 2 -3 4
22 4 25 0 35 -2 23 -4z m2392 -3 c3 -5 -1 -10 -9 -10 -9 0 -16 5 -16 10 0 6 4
10 9 10 6 0 13 -4 16 -10z m-3468 -16 c-3 -3 -12 -4 -19 -1 -8 3 -5 6 6 6 11
1 17 -2 13 -5z m356 -1 c-13 -2 -33 -2 -45 0 -13 2 -3 4 22 4 25 0 35 -2 23
-4z"/>
<path d="M1840 9350 c0 -5 5 -10 10 -10 6 0 10 5 10 10 0 6 -4 10 -10 10 -5 0
-10 -4 -10 -10z"/>
<path d="M2000 9290 c0 -6 7 -10 15 -10 8 0 15 2 15 4 0 2 -7 6 -15 10 -8 3
-15 1 -15 -4z"/>
<path d="M3017 9201 c-16 -6 -15 -9 8 -29 29 -26 45 -28 45 -7 0 8 -6 15 -14
15 -8 0 -16 6 -18 14 -2 8 -10 11 -21 7z"/>
<path d="M3170 9116 c0 -2 7 -6 15 -10 8 -3 15 -1 15 4 0 6 -7 10 -15 10 -8 0
-15 -2 -15 -4z"/>
<path d="M1980 9000 c0 -11 5 -20 10 -20 6 0 10 9 10 20 0 11 -4 20 -10 20 -5
0 -10 -9 -10 -20z"/>
<path d="M2000 8924 c0 -8 5 -12 10 -9 6 4 8 11 5 16 -9 14 -15 11 -15 -7z"/>
<path d="M1940 8810 c0 -5 7 -10 15 -10 8 0 15 5 15 10 0 6 -7 10 -15 10 -8 0
-15 -4 -15 -10z"/>
<path d="M1938 8043 c12 -2 32 -2 45 0 12 2 2 4 -23 4 -25 0 -35 -2 -22 -4z"/>
<path d="M4920 8020 c-285 -8 -181 -12 235 -10 197 1 354 6 360 11 9 9 -226 9
-595 -1z"/>
<path d="M4460 7990 c-10 -6 3 -7 40 -3 30 3 57 7 59 9 10 9 -85 3 -99 -6z"/>
<path d="M4728 7993 c7 -3 16 -2 19 1 4 3 -2 6 -13 5 -11 0 -14 -3 -6 -6z"/>
<path d="M4768 7993 c7 -3 16 -2 19 1 4 3 -2 6 -13 5 -11 0 -14 -3 -6 -6z"/>
<path d="M4598 7923 c23 -2 61 -2 85 0 23 2 4 4 -43 4 -47 0 -66 -2 -42 -4z"/>
<path d="M4288 7870 c-152 -3 -280 -8 -284 -12 -13 -14 583 -13 728 0 l73 6
-50 7 c-27 4 -81 7 -120 6 -38 -1 -195 -4 -347 -7z"/>
<path d="M5101 7829 c23 -7 22 -7 -6 -8 -16 -1 -37 -6 -45 -12 -11 -7 9 -8 68
-4 57 5 82 4 82 -4 0 -7 22 -11 58 -11 40 0 53 3 42 10 -17 11 49 14 208 10
58 -1 92 2 92 8 0 6 10 12 23 14 12 2 -106 3 -262 3 -157 0 -274 -2 -260 -6z"/>
<path d="M4583 7723 c15 -2 37 -2 50 0 12 2 0 4 -28 4 -27 0 -38 -2 -22 -4z"/>
<path d="M4798 7723 c45 -2 119 -2 165 0 45 1 8 3 -83 3 -91 0 -128 -2 -82 -3z"/>
<path d="M5138 7723 c12 -2 32 -2 45 0 12 2 2 4 -23 4 -25 0 -35 -2 -22 -4z"/>
<path d="M5298 7723 c12 -2 32 -2 45 0 12 2 2 4 -23 4 -25 0 -35 -2 -22 -4z"/>
<path d="M3790 6120 c0 -5 5 -10 10 -10 6 0 10 5 10 10 0 6 -4 10 -10 10 -5 0
-10 -4 -10 -10z"/>
<path d="M3938 6123 c12 -2 32 -2 45 0 12 2 2 4 -23 4 -25 0 -35 -2 -22 -4z"/>
<path d="M3553 6113 c9 -2 25 -2 35 0 9 3 1 5 -18 5 -19 0 -27 -2 -17 -5z"/>
<path d="M5390 6116 c0 -2 13 -6 29 -8 17 -2 28 -1 25 4 -5 8 -54 12 -54 4z"/>
<path d="M5505 6111 c-3 -5 -1 -12 5 -16 5 -3 10 1 10 9 0 18 -6 21 -15 7z"/>
<path d="M3398 6083 c23 -2 61 -2 85 0 23 2 4 4 -43 4 -47 0 -66 -2 -42 -4z"/>
<path d="M3703 6083 c15 -2 39 -2 55 0 15 2 2 4 -28 4 -30 0 -43 -2 -27 -4z"/>
<path d="M10358 5793 c7 -3 16 -2 19 1 4 3 -2 6 -13 5 -11 0 -14 -3 -6 -6z"/>
<path d="M9840 5779 c0 -5 19 -9 42 -9 49 0 47 5 -4 13 -21 3 -38 2 -38 -4z"/>
<path d="M10880 5780 c0 -5 18 -10 40 -10 22 0 40 5 40 10 0 6 -18 10 -40 10
-22 0 -40 -4 -40 -10z"/>
<path d="M10060 5770 c0 -5 5 -10 10 -10 6 0 10 5 10 10 0 6 -4 10 -10 10 -5
0 -10 -4 -10 -10z"/>
<path d="M10490 5770 l-75 -6 72 -2 c39 -1 75 3 78 8 3 6 5 9 3 8 -2 -1 -37
-4 -78 -8z"/>
<path d="M9373 5763 c9 -2 23 -2 30 0 6 3 -1 5 -18 5 -16 0 -22 -2 -12 -5z"/>
<path d="M9497 5763 c18 -2 50 -2 70 0 21 2 7 4 -32 4 -38 0 -55 -2 -38 -4z"/>
<path d="M9953 5763 c9 -2 25 -2 35 0 9 3 1 5 -18 5 -19 0 -27 -2 -17 -5z"/>
<path d="M10283 5763 c15 -2 39 -2 55 0 15 2 2 4 -28 4 -30 0 -43 -2 -27 -4z"/>
<path d="M10320 5670 c0 -5 18 -10 40 -10 22 0 40 5 40 10 0 6 -18 10 -40 10
-22 0 -40 -4 -40 -10z"/>
<path d="M10430 5665 c0 -8 5 -15 10 -15 6 0 10 7 10 15 0 8 -4 15 -10 15 -5
0 -10 -7 -10 -15z"/>
<path d="M4485 5470 c-18 -7 -18 -9 -3 -15 16 -6 128 12 128 21 0 7 -104 3
-125 -6z"/>
<path d="M4675 5470 c-8 -13 5 -13 25 0 13 8 13 10 -2 10 -9 0 -20 -4 -23 -10z"/>
<path d="M9920 5450 c0 -5 5 -10 10 -10 6 0 10 5 10 10 0 6 -4 10 -10 10 -5 0
-10 -4 -10 -10z"/>
<path d="M4465 5430 c27 -12 43 -12 25 0 -8 5 -22 9 -30 9 -10 0 -8 -3 5 -9z"/>
<path d="M4960 5433 c-8 -2 -76 -10 -150 -17 -161 -17 -173 -19 -181 -29 -3
-4 -22 -1 -42 8 -56 23 -67 17 -19 -11 48 -30 52 -47 17 -70 -14 -9 -25 -23
-25 -30 0 -8 -6 -14 -14 -14 -12 0 -29 -44 -27 -67 2 -17 65 -24 281 -34 124
-5 232 -10 240 -10 17 -1 174 -27 205 -34 11 -2 52 -11 90 -19 39 -9 88 -21
110 -27 22 -6 50 -12 62 -13 12 -1 29 -9 38 -16 12 -10 40 -13 94 -11 61 1 81
-2 91 -14 10 -12 29 -15 69 -14 31 1 67 -3 81 -8 37 -15 140 -1 152 20 5 9 20
17 33 17 13 0 27 5 30 10 3 6 1 10 -4 10 -6 0 -11 14 -11 30 0 17 -5 30 -11
30 -5 0 -19 23 -31 50 -14 33 -27 50 -38 50 -10 0 -23 7 -30 15 -7 8 -21 15
-31 15 -11 0 -19 7 -19 15 0 9 -9 15 -25 15 -14 0 -25 4 -25 9 0 4 -21 14 -47
20 -27 7 -67 21 -91 32 -23 10 -49 19 -57 19 -9 0 -23 4 -33 9 -69 38 -586 86
-682 64z m-295 -243 c-3 -5 -10 -10 -16 -10 -5 0 -9 5 -9 10 0 6 7 10 16 10 8
0 12 -4 9 -10z m935 -140 c0 -5 -5 -10 -11 -10 -5 0 -7 5 -4 10 3 6 8 10 11
10 2 0 4 -4 4 -10z"/>
<path d="M10240 5345 c0 -17 2 -18 24 -9 23 9 20 24 -4 24 -11 0 -20 -7 -20
-15z"/>
<path d="M10717 5290 c-5 -18 -1 -20 41 -18 37 1 40 2 15 5 -20 3 -33 10 -33
19 0 21 -17 17 -23 -6z"/>
<path d="M13100 5215 c0 -8 5 -15 10 -15 6 0 10 7 10 15 0 8 -4 15 -10 15 -5
0 -10 -7 -10 -15z"/>
<path d="M12668 5083 c12 -2 30 -2 40 0 9 3 -1 5 -23 4 -22 0 -30 -2 -17 -4z"/>
<path d="M11528 5043 c6 -2 18 -2 25 0 6 3 1 5 -13 5 -14 0 -19 -2 -12 -5z"/>
<path d="M11593 5043 c9 -2 23 -2 30 0 6 3 -1 5 -18 5 -16 0 -22 -2 -12 -5z"/>
<path d="M11658 5043 c6 -2 18 -2 25 0 6 3 1 5 -13 5 -14 0 -19 -2 -12 -5z"/>
<path d="M5655 5020 c3 -5 10 -10 16 -10 5 0 9 5 9 10 0 6 -7 10 -16 10 -8 0
-12 -4 -9 -10z"/>
<path d="M12435 5010 c3 -5 15 -10 26 -10 10 0 19 5 19 10 0 6 -12 10 -26 10
-14 0 -23 -4 -19 -10z"/>
<path d="M12835 4830 c3 -5 8 -10 11 -10 2 0 4 5 4 10 0 6 -5 10 -11 10 -5 0
-7 -4 -4 -10z"/>
<path d="M3003 4798 c11 -8 35 -15 55 -16 47 -2 24 13 -33 23 -36 6 -38 6 -22
-7z"/>
<path d="M12560 4791 c0 -12 5 -21 10 -21 6 0 10 6 10 14 0 8 -4 18 -10 21 -5
3 -10 -3 -10 -14z"/>
<path d="M6110 4790 c0 -5 5 -10 10 -10 6 0 10 5 10 10 0 6 -4 10 -10 10 -5 0
-10 -4 -10 -10z"/>
<path d="M2863 4756 c-45 -16 -51 -26 -16 -26 17 0 36 7 43 15 18 21 10 24
-27 11z"/>
<path d="M2957 4753 c-4 -3 -7 -11 -7 -17 0 -6 5 -5 12 2 6 6 9 14 7 17 -3 3
-9 2 -12 -2z"/>
<path d="M3010 4740 c0 -5 7 -10 15 -10 8 0 15 5 15 10 0 6 -7 10 -15 10 -8 0
-15 -4 -15 -10z"/>
<path d="M3020 4541 c0 -11 108 -26 118 -17 12 13 -23 26 -70 26 -27 0 -48 -4
-48 -9z"/>
<path d="M15841 5714 c0 -11 3 -14 6 -6 3 7 2 16 -1 19 -3 4 -6 -2 -5 -13z"/>
<path d="M11615 5230 c-4 -6 24 -10 81 -10 48 0 85 2 83 4 -11 10 -158 16
-164 6z"/>
<path d="M16090 4490 c-19 -13 56 -13 85 0 15 7 9 9 -25 9 -25 0 -52 -4 -60
-9z"/>
<path d="M13930 4495 c0 -8 4 -15 10 -15 5 0 7 7 4 15 -4 8 -8 15 -10 15 -2 0
-4 -7 -4 -15z"/>
<path d="M13210 4165 c-11 -13 -10 -14 4 -9 9 3 16 10 16 15 0 13 -6 11 -20
-6z"/>
<path d="M14032 3330 c0 -14 2 -19 5 -12 2 6 2 18 0 25 -3 6 -5 1 -5 -13z"/>
<path d="M6323 2633 c3 -2 125 -5 273 -7 148 -3 277 -6 286 -8 9 -1 17 2 17 7
1 6 -103 10 -289 11 -160 1 -289 0 -287 -3z"/>
<path d="M15473 7993 c9 -2 25 -2 35 0 9 3 1 5 -18 5 -19 0 -27 -2 -17 -5z"/>
<path d="M16275 7970 c3 -5 15 -10 26 -10 10 0 19 5 19 10 0 6 -12 10 -26 10
-14 0 -23 -4 -19 -10z"/>
<path d="M14152 7638 c-16 -16 -15 -26 2 -44 19 -19 32 -18 16 1 -7 8 -10 24
-7 35 6 23 5 24 -11 8z"/>
<path d="M15760 7270 c0 -6 11 -8 28 -4 39 10 40 14 4 14 -18 0 -32 -5 -32
-10z"/>
<path d="M15745 7161 c-3 -5 -1 -12 5 -16 5 -3 10 1 10 9 0 18 -6 21 -15 7z"/>
<path d="M16525 6350 c3 -5 13 -10 21 -10 8 0 14 5 14 10 0 6 -9 10 -21 10
-11 0 -17 -4 -14 -10z"/>
<path d="M16178 6083 c12 -2 32 -2 45 0 12 2 2 4 -23 4 -25 0 -35 -2 -22 -4z"/>
<path d="M15968 6073 c6 -2 18 -2 25 0 6 3 1 5 -13 5 -14 0 -19 -2 -12 -5z"/>
<path d="M4843 2913 c9 -2 23 -2 30 0 6 3 -1 5 -18 5 -16 0 -22 -2 -12 -5z"/>
<path d="M3625 2890 c3 -5 12 -10 20 -10 8 0 17 5 20 10 4 6 -5 10 -20 10 -15
0 -24 -4 -20 -10z"/>
<path d="M6258 2893 c12 -2 32 -2 45 0 12 2 2 4 -23 4 -25 0 -35 -2 -22 -4z"/>
<path d="M4443 2883 c-26 -3 -43 -9 -43 -17 0 -16 72 -15 78 2 5 17 22 15 22
-3 0 -21 27 -19 39 3 9 14 12 15 20 3 9 -14 31 -7 31 10 0 9 -60 10 -147 2z"/>
<path d="M4626 2881 c-38 -15 1 -20 50 -6 l49 13 -40 0 c-22 1 -49 -3 -59 -7z"/>
<path d="M7120 2845 c0 -8 9 -15 19 -15 26 0 35 16 15 24 -25 10 -34 7 -34 -9z"/>
<path d="M3500 2840 c0 -5 5 -10 10 -10 6 0 10 5 10 10 0 6 -4 10 -10 10 -5 0
-10 -4 -10 -10z"/>
<path d="M7310 2810 c0 -5 5 -10 10 -10 6 0 10 5 10 10 0 6 -4 10 -10 10 -5 0
-10 -4 -10 -10z"/>
<path d="M8640 2736 c0 -9 7 -16 16 -16 9 0 14 5 12 12 -6 18 -28 21 -28 4z"/>
<path d="M2945 2663 c-36 -7 -75 -25 -75 -35 0 -6 7 -5 15 2 8 7 29 10 46 8
20 -3 33 0 36 9 7 17 3 20 -22 16z"/>
<path d="M3034 2650 c1 -11 16 -16 55 -18 56 -3 90 11 56 24 -11 5 -20 3 -23
-4 -5 -16 -79 -15 -85 1 -2 7 -3 6 -3 -3z"/>
<path d="M2820 2629 c0 -5 5 -7 10 -4 6 3 10 8 10 11 0 2 -4 4 -10 4 -5 0 -10
-5 -10 -11z"/>
<path d="M4648 1673 c7 -3 16 -2 19 1 4 3 -2 6 -13 5 -11 0 -14 -3 -6 -6z"/>
<path d="M4880 1664 c0 -9 5 -14 12 -12 18 6 21 28 4 28 -9 0 -16 -7 -16 -16z"/>
<path d="M5288 1673 c7 -3 16 -2 19 1 4 3 -2 6 -13 5 -11 0 -14 -3 -6 -6z"/>
<path d="M4692 1648 c6 -18 28 -21 28 -4 0 9 -7 16 -16 16 -9 0 -14 -5 -12
-12z"/>
<path d="M7040 1616 c0 -9 5 -16 10 -16 6 0 10 4 10 9 0 6 -4 13 -10 16 -5 3
-10 -1 -10 -9z"/>
<path d="M6880 1610 c0 -5 7 -10 16 -10 8 0 12 5 9 10 -3 6 -10 10 -16 10 -5
0 -9 -4 -9 -10z"/>
<path d="M4480 1584 c0 -8 5 -12 10 -9 6 3 10 10 10 16 0 5 -4 9 -10 9 -5 0
-10 -7 -10 -16z"/>
<path d="M6000 1585 c0 -8 4 -15 9 -15 5 0 11 7 15 15 3 9 0 15 -9 15 -8 0
-15 -7 -15 -15z"/>
<path d="M6320 1590 c0 -12 24 -12 60 0 21 7 19 8 -17 9 -24 1 -43 -3 -43 -9z"/>
<path d="M6608 1560 c-3 -33 0 -40 14 -40 10 0 18 5 18 11 0 6 11 20 25 31 35
27 31 38 -14 38 -38 0 -39 -1 -43 -40z"/>
<path d="M6320 1490 c0 -31 -6 -46 -22 -60 -23 -18 -23 -19 -3 -26 11 -4 23
-12 26 -17 4 -6 15 -6 25 -2 17 8 17 9 -3 12 -33 6 -29 33 5 33 16 0 22 3 15
8 -6 4 -13 25 -15 46 -4 55 -28 60 -28 6z"/>
<path d="M5976 1505 c4 -8 10 -15 15 -15 5 0 9 7 9 15 0 8 -7 15 -15 15 -9 0
-12 -6 -9 -15z"/>
<path d="M6772 1508 c6 -18 28 -21 28 -4 0 9 -7 16 -16 16 -9 0 -14 -5 -12
-12z"/>
<path d="M6903 1508 c2 -7 10 -13 17 -13 7 0 15 6 18 13 2 7 -5 12 -18 12 -13
0 -20 -5 -17 -12z"/>
<path d="M5105 1481 c-3 -5 -1 -12 5 -16 5 -3 10 1 10 9 0 18 -6 21 -15 7z"/>
<path d="M6720 1456 c0 -13 -15 -16 -92 -17 l-93 -2 93 -9 c50 -6 92 -14 92
-19 0 -4 -37 -10 -82 -11 -46 -2 -10 -4 80 -4 125 0 162 3 162 13 0 10 -22 13
-80 13 -47 0 -80 4 -80 10 0 6 7 10 16 10 9 0 14 5 12 12 -6 18 -28 21 -28 4z"/>
<path d="M6800 1456 c0 -9 7 -16 16 -16 17 0 14 22 -4 28 -7 2 -12 -3 -12 -12z"/>
<path d="M4578 1433 c12 -2 32 -2 45 0 12 2 2 4 -23 4 -25 0 -35 -2 -22 -4z"/>
<path d="M4650 1436 c0 -10 28 -13 41 -5 10 6 7 9 -13 9 -16 0 -28 -2 -28 -4z"/>
<path d="M4868 1433 c7 -3 16 -2 19 1 4 3 -2 6 -13 5 -11 0 -14 -3 -6 -6z"/>
<path d="M4988 1433 c6 -2 18 -2 25 0 6 3 1 5 -13 5 -14 0 -19 -2 -12 -5z"/>
<path d="M5248 1433 c6 -2 18 -2 25 0 6 3 1 5 -13 5 -14 0 -19 -2 -12 -5z"/>
<path d="M5464 1423 c1 -15 -9 -19 -51 -21 -32 -2 -53 1 -53 7 0 6 -18 11 -40
11 -22 0 -40 -5 -40 -11 0 -7 -26 -9 -85 -4 -88 8 -155 1 -155 -15 0 -6 50
-10 120 -10 73 0 120 4 120 10 0 6 18 10 40 10 22 0 40 -4 40 -10 0 -5 36 -9
80 -9 61 0 80 4 80 14 0 7 -6 16 -12 18 -10 4 -9 8 2 16 12 9 9 11 -16 11 -24
0 -31 -4 -30 -17z"/>
<path d="M5543 1433 c9 -2 23 -2 30 0 6 3 -1 5 -18 5 -16 0 -22 -2 -12 -5z"/>
<path d="M5840 1421 c0 -12 6 -21 16 -21 9 0 14 7 12 17 -5 25 -28 28 -28 4z"/>
<path d="M6080 1430 c69 -3 129 -2 135 2 5 4 -52 7 -125 6 l-135 -2 125 -6z"/>
<path d="M6423 1433 c15 -2 39 -2 55 0 15 2 2 4 -28 4 -30 0 -43 -2 -27 -4z"/>
<path d="M4948 1401 c-73 -10 -68 -20 11 -20 67 0 90 10 55 23 -9 3 -16 5 -17
5 -1 -1 -23 -5 -49 -8z"/>
<path d="M5600 1395 c0 -12 13 -15 58 -14 31 1 68 4 82 8 23 7 21 8 -15 14
-71 12 -125 9 -125 -8z"/>
<path d="M5953 1402 c-18 -2 -33 -8 -33 -14 0 -6 10 -8 23 -4 12 3 49 6 81 6
33 0 57 2 55 4 -7 6 -92 11 -126 8z"/>
<path d="M4810 1390 c0 -19 31 -23 48 -6 15 15 14 16 -16 16 -18 0 -32 -5 -32
-10z"/>
<path d="M5535 1390 c3 -5 12 -10 20 -10 8 0 17 5 20 10 4 6 -5 10 -20 10 -15
0 -24 -4 -20 -10z"/>
<path d="M6160 1390 c0 -5 4 -10 9 -10 6 0 13 5 16 10 3 6 -1 10 -9 10 -9 0
-16 -4 -16 -10z"/>
<path d="M6418 1393 c12 -2 32 -2 45 0 12 2 2 4 -23 4 -25 0 -35 -2 -22 -4z"/>
<path d="M6500 1390 c0 -5 9 -10 20 -10 11 0 20 5 20 10 0 6 -9 10 -20 10 -11
0 -20 -4 -20 -10z"/>
<path d="M6920 1396 c0 -2 9 -6 20 -9 11 -3 20 -1 20 4 0 5 -9 9 -20 9 -11 0
-20 -2 -20 -4z"/>
<path d="M7280 1250 c0 -10 198 -4 209 6 2 2 -44 4 -102 4 -68 0 -107 -4 -107
-10z"/>
<path d="M8001 1256 c8 -8 479 -11 479 -3 0 4 -109 7 -242 7 -133 0 -239 -2
-237 -4z"/>
<path d="M8018 1223 c12 -2 32 -2 45 0 12 2 2 4 -23 4 -25 0 -35 -2 -22 -4z"/>
<path d="M9040 1190 c0 -5 7 -7 15 -4 8 4 15 8 15 10 0 2 -7 4 -15 4 -8 0 -15
-4 -15 -10z"/>
<path d="M8683 1072 c-65 -5 -55 -28 14 -35 32 -3 59 -5 60 -3 2 2 -4 12 -14
22 -14 14 -29 18 -60 16z"/>
<path d="M8782 1068 c-16 -16 -15 -28 3 -28 8 0 15 9 15 20 0 23 -2 24 -18 8z"/>
<path d="M8530 1045 c-11 -13 -7 -15 31 -14 24 1 34 4 22 6 -13 2 -23 9 -23
14 0 14 -16 11 -30 -6z"/>
</g>
</svg>
