<svg width="21" height="20" viewBox="0 0 21 20" fill="none" xmlns="http://www.w3.org/2000/svg">
<path d="M20.1191 18.3125L16.4113 14.6325C17.8505 12.837 18.5475 10.5578 18.3589 8.26385C18.1704 5.96985 17.1105 3.83533 15.3974 2.29919C13.6843 0.763054 11.448 -0.0579415 9.14852 0.00501891C6.84901 0.0679793 4.66099 1.01011 3.03438 2.63769C1.40777 4.26527 0.466194 6.45459 0.403271 8.75547C0.340348 11.0564 1.16086 13.2939 2.69608 15.0081C4.23131 16.7222 6.36456 17.7827 8.65719 17.9714C10.9498 18.1601 13.2276 17.4626 15.0221 16.0225L18.6999 19.7025C18.7928 19.7963 18.9034 19.8707 19.0252 19.9214C19.1469 19.9722 19.2776 19.9983 19.4095 19.9983C19.5414 19.9983 19.6721 19.9722 19.7938 19.9214C19.9156 19.8707 20.0262 19.7963 20.1191 19.7025C20.2992 19.5161 20.3999 19.2669 20.3999 19.0075C20.3999 18.7482 20.2992 18.499 20.1191 18.3125ZM9.41544 16.0225C8.0318 16.0225 6.67922 15.612 5.52876 14.8428C4.3783 14.0737 3.48163 12.9804 2.95213 11.7013C2.42263 10.4223 2.28409 9.01478 2.55403 7.65692C2.82396 6.29905 3.49025 5.05177 4.46864 4.0728C5.44702 3.09383 6.69356 2.42715 8.05062 2.15705C9.40768 1.88695 10.8143 2.02558 12.0926 2.55539C13.371 3.08521 14.4636 3.98241 15.2323 5.13356C16.001 6.2847 16.4113 7.63808 16.4113 9.02255C16.4113 10.8791 15.6742 12.6595 14.3622 13.9723C13.0503 15.2851 11.2709 16.0225 9.41544 16.0225Z" fill="#7C7C8D"/>
</svg>
